<svg width="322" height="322" viewBox="0 0 322 322" fill="none" xmlns="http://www.w3.org/2000/svg">
<path d="M156.992 147.55V140.469C156.986 135.094 154.848 129.941 151.048 126.14C147.247 122.339 142.094 120.201 136.719 120.195H124.555V101.273H147.531C149.323 101.276 151.041 101.988 152.307 103.255C153.574 104.522 154.287 106.24 154.289 108.031C154.289 109.107 154.716 110.138 155.477 110.898C156.237 111.659 157.268 112.086 158.344 112.086C159.419 112.086 160.45 111.659 161.211 110.898C161.971 110.138 162.398 109.107 162.398 108.031C162.394 104.09 160.826 100.311 158.039 97.5235C155.252 94.7363 151.473 93.1685 147.531 93.1641H104.281C103.206 93.1641 102.175 93.5913 101.414 94.3517C100.654 95.1121 100.227 96.1434 100.227 97.2188C100.227 98.2941 100.654 99.3254 101.414 100.086C102.175 100.846 103.206 101.273 104.281 101.273H116.445V120.195H104.281C98.9063 120.201 93.7532 122.339 89.9525 126.14C86.1518 129.941 84.0139 135.094 84.0078 140.469V147.55C77.9801 148.521 72.4947 151.606 68.5328 156.252C64.5709 160.897 62.391 166.801 62.3828 172.906V226.969C62.3857 229.477 63.3834 231.882 65.157 233.655C66.9307 235.429 69.3354 236.427 71.8438 236.43H169.156C171.665 236.427 174.069 235.429 175.843 233.655C177.617 231.882 178.614 229.477 178.617 226.969V172.906C178.609 166.801 176.429 160.897 172.467 156.252C168.505 151.606 163.02 148.521 156.992 147.55ZM104.281 128.305H136.719C139.944 128.308 143.036 129.591 145.316 131.871C147.597 134.152 148.879 137.244 148.883 140.469V147.227H92.1172V140.469C92.1208 137.244 93.4035 134.152 95.6839 131.871C97.9643 129.591 101.056 128.308 104.281 128.305V128.305ZM170.508 226.969C170.507 227.327 170.365 227.671 170.111 227.924C169.858 228.177 169.515 228.32 169.156 228.32H71.8438C71.4855 228.32 71.142 228.177 70.8886 227.924C70.6353 227.671 70.4927 227.327 70.4922 226.969V172.906C70.4976 168.248 72.3504 163.782 75.6443 160.488C78.9382 157.194 83.4042 155.341 88.0625 155.336H152.938C157.596 155.341 162.062 157.194 165.356 160.488C168.65 163.782 170.502 168.248 170.508 172.906V226.969Z" fill="#13A77A"/>
<g clip-path="url(#clip0_52_381)">
<path d="M220.262 135.437C218.756 135.453 217.278 135.839 215.957 136.562C214.637 137.286 213.515 138.323 212.691 139.584C211.867 140.844 211.367 142.288 211.234 143.787C211.101 145.287 211.34 146.797 211.93 148.182L202.082 148.273C200.54 148.287 199.026 148.69 197.682 149.446C196.337 150.201 195.206 151.285 194.393 152.595C193.579 153.905 193.111 155.4 193.03 156.94C192.949 158.48 193.259 160.015 193.931 161.403C192.096 161.977 190.489 163.113 189.336 164.651C188.184 166.189 187.544 168.051 187.509 169.973C187.473 171.894 188.043 173.779 189.138 175.358C190.233 176.938 191.797 178.133 193.609 178.774C193.207 180.145 193.131 181.591 193.388 182.996C193.645 184.402 194.228 185.728 195.09 186.867C195.951 188.007 197.068 188.929 198.35 189.56C199.632 190.19 201.044 190.512 202.473 190.498L203.875 190.485C203.311 191.882 203.1 193.395 203.261 194.892C203.422 196.39 203.949 197.824 204.796 199.069C205.643 200.313 206.784 201.33 208.118 202.029C209.451 202.728 210.937 203.087 212.442 203.075L238.481 202.834C243.819 202.784 249.032 201.218 253.513 198.319C257.994 195.42 261.559 191.306 263.791 186.458C266.024 181.61 266.832 176.227 266.122 170.937C265.411 165.647 263.212 160.668 259.78 156.58C258.235 150.461 254.678 145.039 249.681 141.185C244.684 137.33 238.537 135.267 232.226 135.326L220.262 135.437ZM198.647 157.455C198.64 156.522 199.003 155.624 199.656 154.958C200.31 154.293 201.201 153.913 202.134 153.903L217.159 153.764C216.733 155.646 216.91 157.614 217.664 159.39L207.816 159.481C206.093 159.496 204.41 160 202.962 160.934L202.199 160.941C201.266 160.949 200.368 160.586 199.702 159.932C199.037 159.279 198.657 158.388 198.647 157.455ZM193.135 170.175C193.127 169.242 193.49 168.344 194.144 167.678C194.797 167.013 195.688 166.633 196.621 166.623L198.981 166.602C198.518 168.626 198.76 170.748 199.667 172.616C198.884 172.86 198.139 173.209 197.45 173.654L196.687 173.661C195.754 173.669 194.856 173.306 194.19 172.652C193.524 171.999 193.145 171.108 193.135 170.175ZM260.741 174.475C260.789 180.446 258.467 186.192 254.285 190.453C250.102 194.714 244.4 197.142 238.429 197.204L212.391 197.445C211.457 197.454 210.559 197.091 209.893 196.438C209.227 195.784 208.848 194.892 208.839 193.959C208.831 193.025 209.193 192.127 209.847 191.461C210.501 190.795 211.392 190.416 212.326 190.407L229.216 190.251C229.959 190.239 230.667 189.934 231.186 189.402C231.705 188.869 231.993 188.153 231.986 187.41C231.979 186.667 231.678 185.956 231.15 185.434C230.621 184.911 229.907 184.619 229.164 184.621L202.421 184.868C201.956 184.876 201.496 184.791 201.064 184.62C200.633 184.448 200.24 184.193 199.908 183.869C199.576 183.545 199.311 183.159 199.128 182.732C198.946 182.305 198.85 181.847 198.846 181.383C198.841 180.919 198.929 180.458 199.103 180.028C199.278 179.598 199.535 179.207 199.862 178.877C200.188 178.546 200.576 178.284 201.004 178.105C201.432 177.925 201.891 177.832 202.355 177.831L229.098 177.584C229.842 177.572 230.55 177.266 231.069 176.734C231.588 176.202 231.875 175.486 231.869 174.743C231.862 173.999 231.561 173.289 231.032 172.766C230.503 172.244 229.789 171.952 229.046 171.954L207.933 172.149C207.471 172.153 207.013 172.067 206.584 171.894C206.156 171.721 205.765 171.465 205.436 171.141C205.106 170.818 204.843 170.432 204.662 170.007C204.481 169.582 204.386 169.125 204.382 168.663C204.378 168.201 204.464 167.742 204.637 167.314C204.81 166.885 205.066 166.495 205.39 166.165C206.043 165.499 206.935 165.12 207.868 165.111L237.426 164.838C238.169 164.826 238.878 164.521 239.397 163.988C239.916 163.456 240.203 162.74 240.196 161.997C240.189 161.253 239.889 160.543 239.36 160.021C238.831 159.498 238.117 159.206 237.374 159.208L226.114 159.312C225.652 159.316 225.193 159.23 224.764 159.057C224.336 158.884 223.946 158.628 223.616 158.304C222.95 157.651 222.571 156.759 222.562 155.826C222.554 154.892 222.916 153.994 223.57 153.328C223.894 152.998 224.279 152.735 224.704 152.555C225.13 152.374 225.586 152.279 226.048 152.274L238.012 152.164C243.985 152.108 249.735 154.428 253.997 158.612C258.26 162.797 260.685 168.503 260.741 174.475ZM249.679 148.961C245.992 147.318 241.996 146.491 237.96 146.533L225.996 146.644C224.27 146.657 222.583 147.161 221.132 148.097L220.379 148.104C219.915 148.111 219.454 148.027 219.023 147.856C218.592 147.684 218.199 147.429 217.867 147.105C217.534 146.781 217.27 146.394 217.087 145.968C216.905 145.541 216.809 145.082 216.805 144.618C216.8 144.154 216.888 143.694 217.062 143.264C217.237 142.834 217.494 142.442 217.82 142.112C218.147 141.782 218.535 141.52 218.963 141.34C219.391 141.161 219.85 141.068 220.314 141.067L232.278 140.956C235.587 140.936 238.861 141.642 241.868 143.025C244.874 144.409 247.541 146.435 249.679 148.961ZM202.097 136.087L198.079 132.143C197.547 131.62 197.243 130.907 197.237 130.16C197.23 129.413 197.52 128.695 198.043 128.162C198.566 127.629 199.279 127.326 200.026 127.319C200.773 127.312 201.491 127.602 202.024 128.125L206.042 132.069C206.306 132.328 206.516 132.637 206.66 132.977C206.805 133.317 206.881 133.683 206.885 134.052C206.888 134.422 206.818 134.789 206.68 135.132C206.542 135.475 206.337 135.787 206.078 136.051C205.819 136.314 205.511 136.525 205.17 136.669C204.83 136.814 204.465 136.89 204.095 136.893C203.349 136.9 202.63 136.61 202.097 136.087ZM209.486 129.61L207.059 124.529C206.896 124.195 206.8 123.832 206.778 123.46C206.755 123.089 206.807 122.717 206.929 122.366C207.052 122.015 207.242 121.691 207.49 121.414C207.738 121.137 208.039 120.912 208.375 120.751C208.71 120.591 209.074 120.499 209.446 120.48C209.817 120.461 210.189 120.516 210.539 120.642C210.889 120.768 211.211 120.962 211.485 121.212C211.76 121.463 211.982 121.766 212.14 122.103L214.566 127.184C214.88 127.856 214.915 128.625 214.664 129.324C214.413 130.022 213.897 130.593 213.227 130.913C212.558 131.233 211.789 131.275 211.088 131.031C210.388 130.787 209.812 130.276 209.486 129.61ZM223.705 119.903L224.248 125.507C224.312 126.247 224.083 126.981 223.608 127.552C223.134 128.122 222.454 128.483 221.715 128.554C220.977 128.626 220.24 128.403 219.665 127.934C219.09 127.465 218.723 126.788 218.644 126.05L218.101 120.446C218.062 120.076 218.096 119.702 218.202 119.346C218.308 118.989 218.484 118.657 218.719 118.369C218.954 118.081 219.244 117.842 219.572 117.666C219.899 117.491 220.259 117.382 220.629 117.346C220.999 117.31 221.373 117.348 221.729 117.457C222.084 117.567 222.414 117.745 222.7 117.983C222.986 118.221 223.222 118.513 223.395 118.842C223.567 119.172 223.673 119.532 223.705 119.903Z" fill="#265C4C"/>
</g>
<defs>
<clipPath id="clip0_52_381">
<rect width="90.0844" height="90.0844" fill="white" transform="translate(165 178.2) rotate(-56.5925)"/>
</clipPath>
</defs>
</svg>
