<svg width="322" height="322" viewBox="0 0 322 322" fill="none" xmlns="http://www.w3.org/2000/svg">
<path fill-rule="evenodd" clip-rule="evenodd" d="M230.982 92V115.169H157.63V99.7231C157.63 97.6748 158.444 95.7104 159.892 94.262C161.34 92.8137 163.304 92 165.352 92H230.982ZM165.352 99.7231H223.261V107.446H165.352V99.7231Z" fill="#265C4C"/>
<path fill-rule="evenodd" clip-rule="evenodd" d="M119.024 222.327V223.277C119.024 225.325 118.211 227.289 116.763 228.738C115.315 230.186 113.351 231 111.303 231H99.7213C97.6734 231 95.7095 230.186 94.2615 228.738C92.8135 227.289 92 225.325 92 223.277V180.819C92 178.771 92.8135 176.807 94.2615 175.358C95.7095 173.91 97.6734 173.096 99.7213 173.096H111.303C113.042 173.095 114.73 173.682 116.094 174.76C117.459 175.839 118.419 177.347 118.82 179.039C123.931 177.197 129.904 175.004 131.73 174.17C133.282 173.463 135.073 173.224 136.563 173.135C138.101 173.06 139.642 173.087 141.177 173.216C142.895 173.353 144.606 173.569 146.304 173.865L146.392 173.88L146.419 173.884H146.431L146.5 173.899L172.328 179.692L172.486 179.746L172.529 179.761L172.706 179.815C173.821 180.142 174.946 180.429 176.081 180.676C178.3 181.159 181.099 181.611 183.705 181.611C186.114 181.611 188.608 182.511 189.936 184.951C191.079 187.044 190.813 189.345 190.388 190.936C189.851 192.921 188.747 195.006 187.346 196.779C189.238 196.065 191.311 195.219 193.534 194.308L194.009 194.114C200.275 191.539 207.703 188.488 214.258 187.407C221.748 186.167 227.195 188.886 229.666 193.709C231.867 198.003 231.357 203.637 228.045 207.031C227.215 207.885 225.948 208.781 224.678 209.603C223.319 210.487 221.648 211.48 219.791 212.538C215.525 214.927 211.206 217.222 206.838 219.419C197.681 224.064 188.083 228.582 185.033 229.698C181.497 230.992 177.698 231.116 174.05 230.926C171.847 230.79 169.647 230.603 167.452 230.366C165.792 230.2 164.144 230.038 162.626 229.922C155.183 229.359 149.469 227.54 144.211 225.868L143.57 225.663C138.134 223.941 133.077 222.408 126.379 222.138C124.85 222.076 121.792 222.192 119.024 222.323V222.327ZM134.93 181.198C135.181 181.082 135.837 180.916 137.007 180.846C138.104 180.781 139.354 180.823 140.578 180.916C141.959 181.025 143.335 181.194 144.701 181.422L144.84 181.449L144.948 181.468H144.96L170.313 187.156L170.487 187.21C171.791 187.594 173.108 187.931 174.436 188.222C176.694 188.716 179.725 189.233 182.81 189.322C182.534 190.066 182.164 190.77 181.709 191.419C181.092 192.315 180.416 193.006 179.86 193.404C178.254 194.555 176.957 195.034 176.169 195.238C175.901 195.312 175.627 195.363 175.351 195.393H175.266L154.565 195.145L153.832 202.807L154.519 199.007L153.832 202.807L154.036 202.845L154.627 202.95L156.774 203.328C158.576 203.645 161.051 204.069 163.746 204.51C169.05 205.375 175.444 206.332 179.073 206.552C181.582 206.707 184.501 205.935 187.215 205.027C190.044 204.081 193.245 202.772 196.465 201.451C203.093 198.733 209.846 195.964 215.517 195.026C220.42 194.215 222.169 196.007 222.794 197.231C223.694 198.988 223.207 200.938 222.516 201.641C222.35 201.814 221.744 202.305 220.478 203.127C219.296 203.888 217.771 204.803 215.98 205.819C211.819 208.149 207.608 210.386 203.348 212.53C194.114 217.214 184.925 221.512 182.377 222.446C180.316 223.203 177.764 223.385 174.448 223.215C172.486 223.115 170.625 222.925 168.599 222.717C166.804 222.528 165.008 222.363 163.209 222.223C156.677 221.728 151.712 220.149 146.388 218.458L145.906 218.303C140.393 216.554 134.494 214.735 126.692 214.422C124.935 214.353 121.808 214.461 119.024 214.592V187.171C124.449 185.229 132.486 182.314 134.93 181.198V181.198ZM145.724 177.684L146.431 173.888L145.724 177.684ZM111.303 180.815H99.7213V223.273H111.303V180.819V180.815Z" fill="#13A77A"/>
<path d="M161.491 122.893C160.467 122.893 159.485 123.299 158.761 124.024C158.037 124.748 157.63 125.73 157.63 126.754C157.63 127.778 158.037 128.76 158.761 129.485C159.485 130.209 160.467 130.616 161.491 130.616H184.655C185.679 130.616 186.661 130.209 187.385 129.485C188.109 128.76 188.515 127.778 188.515 126.754C188.515 125.73 188.109 124.748 187.385 124.024C186.661 123.299 185.679 122.893 184.655 122.893H161.491Z" fill="#265C4C"/>
<path d="M173.073 139.002C174.097 139.002 175.079 139.409 175.803 140.133C176.527 140.857 176.933 141.839 176.933 142.863V150.587C176.933 151.611 176.527 152.593 175.803 153.317C175.079 154.041 174.097 154.448 173.073 154.448C172.049 154.448 171.067 154.041 170.343 153.317C169.619 152.593 169.212 151.611 169.212 150.587V142.863C169.212 141.839 169.619 140.857 170.343 140.133C171.067 139.409 172.049 139.002 173.073 139.002Z" fill="#265C4C"/>
<path d="M188.983 139.47C188.255 138.766 187.28 138.377 186.267 138.386C185.255 138.395 184.287 138.801 183.571 139.517C182.855 140.233 182.449 141.201 182.44 142.214C182.432 143.226 182.821 144.202 183.524 144.93L188.983 150.39C189.341 150.749 189.767 151.034 190.235 151.228C190.704 151.422 191.206 151.522 191.713 151.522C192.22 151.523 192.722 151.423 193.191 151.229C193.659 151.035 194.085 150.751 194.444 150.392C194.802 150.034 195.087 149.608 195.281 149.139C195.475 148.671 195.575 148.169 195.576 147.661C195.576 147.154 195.476 146.652 195.282 146.183C195.088 145.715 194.804 145.289 194.446 144.93L188.983 139.47V139.47Z" fill="#265C4C"/>
<path d="M151.04 151.055C150.316 150.331 149.91 149.349 149.91 148.325C149.91 147.301 150.316 146.319 151.04 145.595L156.499 140.131C157.224 139.407 158.206 139 159.23 139C160.254 139.001 161.236 139.408 161.96 140.133C162.684 140.857 163.09 141.84 163.09 142.864C163.09 143.889 162.683 144.871 161.958 145.595L156.499 151.055C155.775 151.779 154.793 152.186 153.77 152.186C152.746 152.186 151.764 151.779 151.04 151.055Z" fill="#265C4C"/>
<path d="M176.933 162.172C176.933 161.147 176.527 160.165 175.803 159.441C175.079 158.717 174.097 158.31 173.073 158.31C172.049 158.31 171.067 158.717 170.343 159.441C169.619 160.165 169.212 161.147 169.212 162.172V166.033C169.212 167.057 169.619 168.039 170.343 168.764C171.067 169.488 172.049 169.895 173.073 169.895C174.097 169.895 175.079 169.488 175.803 168.764C176.527 168.039 176.933 167.057 176.933 166.033V162.172Z" fill="#265C4C"/>
<path d="M197.035 152.984C197.759 152.26 198.741 151.854 199.765 151.854C200.789 151.854 201.77 152.26 202.494 152.984L207.953 158.444C208.656 159.173 209.046 160.148 209.037 161.161C209.028 162.173 208.622 163.142 207.906 163.857C207.19 164.573 206.222 164.98 205.21 164.988C204.198 164.997 203.222 164.608 202.494 163.905L197.035 158.444C196.312 157.72 195.905 156.738 195.905 155.714C195.905 154.69 196.312 153.708 197.035 152.984V152.984Z" fill="#265C4C"/>
<path d="M137.529 158.144C136.825 158.872 136.436 159.848 136.445 160.86C136.454 161.873 136.86 162.841 137.576 163.557C138.291 164.273 139.26 164.679 140.272 164.688C141.284 164.697 142.259 164.308 142.987 163.604L148.446 158.144C148.805 157.786 149.09 157.36 149.284 156.891C149.478 156.423 149.578 155.921 149.578 155.413C149.579 154.906 149.479 154.404 149.285 153.935C149.091 153.467 148.807 153.041 148.448 152.682C148.09 152.323 147.664 152.039 147.196 151.844C146.727 151.65 146.225 151.55 145.718 151.55C145.211 151.55 144.709 151.649 144.241 151.843C143.772 152.037 143.346 152.322 142.987 152.68L137.529 158.144Z" fill="#265C4C"/>
</svg>
