<svg width="323" height="322" viewBox="0 0 323 322" fill="none" xmlns="http://www.w3.org/2000/svg">
<path d="M198 142.75H100.667V167.083H198V142.75Z" stroke="#265C4C" stroke-width="9" stroke-miterlimit="2" stroke-linecap="round" stroke-linejoin="round"/>
<path d="M198 124.5V188.375C198 190.795 197.039 193.116 195.327 194.827C193.616 196.538 191.295 197.5 188.875 197.5H109.792C107.372 197.5 105.051 196.538 103.339 194.827C101.628 193.116 100.667 190.795 100.667 188.375V109.292C100.667 106.871 101.628 104.55 103.339 102.839C105.051 101.128 107.372 100.167 109.792 100.167H213.208C215.628 100.167 217.949 101.128 219.661 102.839C221.372 104.55 222.333 106.871 222.333 109.292V212.708C222.333 215.128 221.372 217.449 219.661 219.161C217.949 220.872 215.628 221.833 213.208 221.833H134.125C131.705 221.833 129.384 220.872 127.673 219.161C125.961 217.449 125 215.128 125 212.708V200.542" stroke="#13A77A" stroke-width="9" stroke-miterlimit="2" stroke-linecap="round" stroke-linejoin="round"/>
</svg>
