<svg width="322" height="322" viewBox="0 0 322 322" fill="none" xmlns="http://www.w3.org/2000/svg">
<path fill-rule="evenodd" clip-rule="evenodd" d="M230.352 77V100.169H157V84.7231C157 82.6748 157.813 80.7104 159.262 79.262C160.71 77.8137 162.673 77 164.721 77H230.352ZM164.721 84.7231H222.631V92.4461H164.721V84.7231Z" fill="#265C4C"/>
<path fill-rule="evenodd" clip-rule="evenodd" d="M118.024 207.327V208.277C118.024 210.325 117.211 212.289 115.763 213.738C114.315 215.186 112.351 216 110.303 216H98.7213C96.6734 216 94.7095 215.186 93.2615 213.738C91.8135 212.289 91 210.325 91 208.277V165.819C91 163.771 91.8135 161.807 93.2615 160.358C94.7095 158.91 96.6734 158.096 98.7213 158.096H110.303C112.042 158.095 113.73 158.682 115.094 159.76C116.459 160.839 117.419 162.347 117.82 164.039C122.931 162.197 128.904 160.004 130.73 159.17C132.282 158.463 134.073 158.224 135.563 158.135C137.101 158.06 138.642 158.087 140.177 158.216C141.895 158.353 143.606 158.569 145.304 158.865L145.392 158.88L145.419 158.884H145.431L145.5 158.899L171.328 164.692L171.486 164.746L171.529 164.761L171.706 164.815C172.821 165.142 173.946 165.429 175.081 165.676C177.3 166.159 180.099 166.611 182.705 166.611C185.114 166.611 187.608 167.511 188.936 169.951C190.079 172.044 189.813 174.345 189.388 175.936C188.851 177.921 187.747 180.006 186.346 181.779C188.238 181.065 190.311 180.219 192.534 179.308L193.009 179.114C199.275 176.539 206.703 173.488 213.258 172.407C220.748 171.167 226.195 173.886 228.666 178.709C230.867 183.003 230.357 188.637 227.045 192.031C226.215 192.885 224.948 193.781 223.678 194.603C222.319 195.487 220.648 196.48 218.791 197.538C214.525 199.927 210.206 202.222 205.838 204.419C196.681 209.064 187.083 213.582 184.033 214.698C180.497 215.992 176.698 216.116 173.05 215.926C170.847 215.79 168.647 215.603 166.452 215.366C164.792 215.2 163.144 215.038 161.626 214.922C154.183 214.359 148.469 212.54 143.211 210.868L142.57 210.663C137.134 208.941 132.077 207.408 125.379 207.138C123.85 207.076 120.792 207.192 118.024 207.323V207.327ZM133.93 166.198C134.181 166.082 134.837 165.916 136.007 165.846C137.104 165.781 138.354 165.823 139.578 165.916C140.959 166.025 142.335 166.194 143.701 166.422L143.84 166.449L143.948 166.468H143.96L169.313 172.156L169.487 172.21C170.791 172.594 172.108 172.931 173.436 173.222C175.694 173.716 178.725 174.233 181.81 174.322C181.534 175.066 181.164 175.77 180.709 176.419C180.092 177.315 179.416 178.006 178.86 178.404C177.254 179.555 175.957 180.034 175.169 180.238C174.901 180.312 174.627 180.363 174.351 180.393H174.266L153.565 180.145L152.832 187.807L153.519 184.007L152.832 187.807L153.036 187.845L153.627 187.95L155.774 188.328C157.576 188.645 160.051 189.069 162.746 189.51C168.05 190.375 174.444 191.332 178.073 191.552C180.582 191.707 183.501 190.935 186.215 190.027C189.044 189.081 192.245 187.772 195.465 186.451C202.093 183.733 208.846 180.964 214.517 180.026C219.42 179.215 221.169 181.007 221.794 182.231C222.694 183.988 222.207 185.938 221.516 186.641C221.35 186.814 220.744 187.305 219.478 188.127C218.296 188.888 216.771 189.803 214.98 190.819C210.819 193.149 206.608 195.386 202.348 197.53C193.114 202.214 183.925 206.512 181.377 207.446C179.316 208.203 176.764 208.385 173.448 208.215C171.486 208.115 169.625 207.925 167.599 207.717C165.804 207.528 164.008 207.363 162.209 207.223C155.677 206.728 150.712 205.149 145.388 203.458L144.906 203.303C139.393 201.554 133.494 199.735 125.692 199.422C123.935 199.353 120.808 199.461 118.024 199.592V172.171C123.449 170.229 131.486 167.314 133.93 166.198V166.198ZM144.724 162.684L145.431 158.888L144.724 162.684ZM110.303 165.815H98.7213V208.273H110.303V165.819V165.815Z" fill="#13A77A"/>
<path d="M160.491 107.893C159.467 107.893 158.485 108.299 157.761 109.024C157.037 109.748 156.63 110.73 156.63 111.754C156.63 112.778 157.037 113.76 157.761 114.485C158.485 115.209 159.467 115.616 160.491 115.616H183.655C184.679 115.616 185.661 115.209 186.385 114.485C187.109 113.76 187.515 112.778 187.515 111.754C187.515 110.73 187.109 109.748 186.385 109.024C185.661 108.299 184.679 107.893 183.655 107.893H160.491Z" fill="#265C4C"/>
<path d="M172.073 124.002C173.097 124.002 174.079 124.409 174.803 125.133C175.527 125.857 175.933 126.839 175.933 127.863V135.587C175.933 136.611 175.527 137.593 174.803 138.317C174.079 139.041 173.097 139.448 172.073 139.448C171.049 139.448 170.067 139.041 169.343 138.317C168.619 137.593 168.212 136.611 168.212 135.587V127.863C168.212 126.839 168.619 125.857 169.343 125.133C170.067 124.409 171.049 124.002 172.073 124.002Z" fill="#265C4C"/>
<path d="M187.983 124.47C187.255 123.766 186.28 123.377 185.267 123.386C184.255 123.395 183.287 123.801 182.571 124.517C181.855 125.233 181.449 126.201 181.44 127.214C181.432 128.226 181.821 129.202 182.524 129.93L187.983 135.39C188.341 135.749 188.767 136.034 189.235 136.228C189.704 136.422 190.206 136.522 190.713 136.522C191.22 136.523 191.722 136.423 192.191 136.229C192.659 136.035 193.085 135.751 193.444 135.392C193.802 135.034 194.087 134.608 194.281 134.139C194.475 133.671 194.575 133.169 194.576 132.661C194.576 132.154 194.476 131.652 194.282 131.183C194.088 130.715 193.804 130.289 193.446 129.93L187.983 124.47V124.47Z" fill="#265C4C"/>
<path d="M150.04 136.055C149.316 135.331 148.91 134.349 148.91 133.325C148.91 132.301 149.316 131.319 150.04 130.595L155.499 125.131C156.224 124.407 157.206 124 158.23 124C159.254 124.001 160.236 124.408 160.96 125.133C161.684 125.857 162.09 126.84 162.09 127.864C162.09 128.889 161.683 129.871 160.958 130.595L155.499 136.055C154.775 136.779 153.793 137.186 152.77 137.186C151.746 137.186 150.764 136.779 150.04 136.055Z" fill="#265C4C"/>
<path d="M175.933 147.172C175.933 146.147 175.527 145.165 174.803 144.441C174.079 143.717 173.097 143.31 172.073 143.31C171.049 143.31 170.067 143.717 169.343 144.441C168.619 145.165 168.212 146.147 168.212 147.172V151.033C168.212 152.057 168.619 153.039 169.343 153.764C170.067 154.488 171.049 154.895 172.073 154.895C173.097 154.895 174.079 154.488 174.803 153.764C175.527 153.039 175.933 152.057 175.933 151.033V147.172Z" fill="#265C4C"/>
<path d="M196.035 137.984C196.759 137.26 197.741 136.854 198.765 136.854C199.789 136.854 200.77 137.26 201.494 137.984L206.953 143.444C207.656 144.173 208.046 145.148 208.037 146.161C208.028 147.173 207.622 148.142 206.906 148.857C206.19 149.573 205.222 149.98 204.21 149.988C203.198 149.997 202.222 149.608 201.494 148.905L196.035 143.444C195.312 142.72 194.905 141.738 194.905 140.714C194.905 139.69 195.312 138.708 196.035 137.984V137.984Z" fill="#265C4C"/>
<path d="M136.529 143.144C135.825 143.872 135.436 144.848 135.445 145.86C135.454 146.873 135.86 147.841 136.576 148.557C137.291 149.273 138.26 149.679 139.272 149.688C140.284 149.697 141.259 149.308 141.987 148.604L147.446 143.144C147.805 142.786 148.09 142.36 148.284 141.891C148.478 141.423 148.578 140.921 148.578 140.413C148.579 139.906 148.479 139.404 148.285 138.935C148.091 138.467 147.807 138.041 147.448 137.682C147.09 137.323 146.664 137.039 146.196 136.844C145.727 136.65 145.225 136.55 144.718 136.55C144.211 136.55 143.709 136.649 143.241 136.843C142.772 137.037 142.346 137.322 141.987 137.68L136.529 143.144Z" fill="#265C4C"/>
<circle cx="214.5" cy="225.5" r="7" stroke="#13A77A" stroke-width="5"/>
<circle cx="183.5" cy="235.5" r="7" stroke="#13A77A" stroke-width="5"/>
<circle cx="112.5" cy="140.5" r="7" stroke="#13A77A" stroke-width="5"/>
</svg>
