<svg width="322" height="322" viewBox="0 0 322 322" fill="none" xmlns="http://www.w3.org/2000/svg">
<circle cx="79.5" cy="209.5" r="7" stroke="#265C4C" stroke-width="5"/>
<circle cx="88.5" cy="90.5" r="7" stroke="#265C4C" stroke-width="5"/>
<circle cx="125.5" cy="71.5" r="7" stroke="#265C4C" stroke-width="5"/>
<circle cx="206.5" cy="61.5" r="7" stroke="#265C4C" stroke-width="5"/>
<path d="M131.441 140.301C133.502 139.041 135.814 138.251 138.207 137.987L136.209 134.712C134.221 131.454 133.482 127.582 134.124 123.792C134.765 120.002 136.747 116.544 139.711 114.04C142.674 111.537 146.426 110.152 150.289 110.136C154.153 110.12 157.874 111.474 160.784 113.953C162.211 111.53 164.243 109.506 166.681 108.082C169.119 106.658 171.879 105.881 174.69 105.829C177.501 105.777 180.266 106.451 182.714 107.785C185.162 109.118 187.209 111.066 188.655 113.436L211.123 150.263L210.987 142.222C210.92 137.976 212.547 133.851 215.515 130.746C218.482 127.64 222.549 125.807 226.829 125.646C231.109 125.485 235.254 127.008 238.36 129.885C241.466 132.761 243.282 136.756 243.411 141C247.682 184.243 245.468 204.76 220.83 219.792C209.235 226.848 195.361 229.094 182.252 226.037C169.143 222.979 157.87 214.867 150.905 203.482L125.877 162.46C123.669 158.832 123.015 154.462 124.058 150.308C125.101 146.153 127.756 142.555 131.441 140.301V140.301ZM158.852 198.633C164.55 207.949 173.774 214.586 184.499 217.088C195.225 219.589 206.576 217.752 216.063 211.978C226.085 205.863 231.437 198.943 233.959 188.837C236.432 178.929 236.494 165.32 234.172 141.863C234.16 141.74 234.153 141.616 234.151 141.492C234.136 140.586 233.941 139.696 233.577 138.87C233.214 138.045 232.689 137.301 232.033 136.681C231.377 136.062 230.602 135.578 229.753 135.258C228.904 134.938 227.998 134.788 227.085 134.817C225.242 134.875 223.487 135.657 222.205 136.991C221.571 137.652 221.072 138.428 220.737 139.275C220.401 140.122 220.237 141.025 220.252 141.93L220.678 167.122C220.695 168.133 220.375 169.127 219.768 169.949C219.161 170.771 218.3 171.376 217.32 171.669C216.339 171.961 215.293 171.926 214.345 171.569C213.396 171.211 212.597 170.552 212.072 169.692L180.708 118.284C179.76 116.73 178.223 115.623 176.435 115.206C174.646 114.789 172.754 115.096 171.173 116.06C169.592 117.025 168.453 118.567 168.006 120.348C167.559 122.129 167.84 124.003 168.789 125.557L189.049 158.765C189.682 159.801 189.869 161.05 189.571 162.238C189.273 163.425 188.514 164.453 187.46 165.096C186.406 165.739 185.144 165.944 183.952 165.666C182.76 165.388 181.735 164.649 181.103 163.613L156.075 122.591C155.127 121.037 153.589 119.93 151.801 119.512C150.013 119.095 148.12 119.403 146.54 120.367C144.959 121.332 143.82 122.874 143.373 124.655C142.926 126.436 143.207 128.309 144.155 129.864L169.183 170.885C169.815 171.922 170.003 173.171 169.705 174.358C169.407 175.545 168.647 176.574 167.594 177.216C166.54 177.859 165.278 178.064 164.086 177.786C162.894 177.508 161.869 176.77 161.237 175.734L145.743 150.339C144.795 148.785 143.258 147.678 141.47 147.26C139.681 146.843 137.789 147.151 136.208 148.115C134.627 149.08 133.488 150.622 133.041 152.403C132.594 154.184 132.875 156.057 133.824 157.612L158.852 198.633Z" fill="#13A77A"/>
<path fill-rule="evenodd" clip-rule="evenodd" d="M106.104 115.372C108.405 115.369 110.678 115.886 112.755 116.883V113.138C112.755 109.413 114.075 105.81 116.478 102.978C118.88 100.147 122.208 98.2726 125.86 97.6932C129.513 97.1138 133.251 97.8675 136.401 99.8183C139.551 101.769 141.906 104.789 143.042 108.334C145.406 107.04 148.063 106.387 150.752 106.44C153.442 106.493 156.071 107.249 158.383 108.634C160.652 109.994 162.538 111.914 163.864 114.212C162.893 115.18 162.049 116.278 161.358 117.479C158.561 115.054 154.998 113.715 151.308 113.703C147.619 113.69 144.046 115.005 141.234 117.411C138.421 119.817 136.554 123.155 135.968 126.825C135.382 130.495 136.116 134.254 138.038 137.427L139.97 140.617C138.216 140.8 136.511 141.285 134.927 142.046V113.138C134.927 111.361 134.226 109.656 132.978 108.4C131.731 107.143 130.039 106.437 128.275 106.437C126.511 106.437 124.819 107.143 123.572 108.4C122.325 109.656 121.624 111.361 121.624 113.138V160.044C121.624 161.229 121.157 162.365 120.325 163.203C119.493 164.041 118.366 164.511 117.189 164.511C116.013 164.511 114.886 164.041 114.054 163.203C113.222 162.365 112.755 161.229 112.755 160.044V131.007C112.755 129.23 112.054 127.525 110.807 126.269C109.56 125.012 107.868 124.306 106.104 124.306C104.34 124.306 102.648 125.012 101.401 126.269C100.153 127.525 99.4524 129.23 99.4524 131.007V177.913C99.4643 188.572 103.673 198.792 111.154 206.329C118.636 213.866 128.78 218.106 139.361 218.118C147.454 218.118 153.769 216.523 159.318 212.937C161.476 215.157 163.836 217.163 166.363 218.929C158.934 224.48 150.397 227.053 139.361 227.053C126.429 227.038 114.031 221.856 104.886 212.644C95.7422 203.431 90.5985 190.941 90.5839 177.913V131.007C90.5884 126.862 92.225 122.887 95.1346 119.956C98.0441 117.025 101.989 115.376 106.104 115.372Z" fill="#13A77A"/>
<circle cx="248.5" cy="113.5" r="7" stroke="#265C4C" stroke-width="5"/>
<circle cx="161.5" cy="80.5" r="7" stroke="#265C4C" stroke-width="5"/>
</svg>
