<svg width="323" height="322" viewBox="0 0 323 322" fill="none" xmlns="http://www.w3.org/2000/svg">
<path d="M194.983 184.822H127.69V190.421H194.983V184.822Z" fill="#13A77A"/>
<path d="M225.326 190.421H221.071V184.822H225.326C226.782 184.822 227.902 183.703 227.902 182.247V130.517C227.902 128.39 226.11 126.598 223.983 126.598H99.5849C96.5618 126.598 94.0985 129.062 94.0985 132.085V172.954C94.0985 177.432 96.5618 181.463 100.481 183.479C102.272 184.375 103.056 184.822 104.736 184.822V190.421C101.6 190.421 99.9208 189.525 97.9054 188.517C92.083 185.494 88.5 179.56 88.5 173.066V132.085C88.5 125.927 93.4266 121 99.5849 121H223.983C229.245 121 233.5 125.255 233.5 130.517V182.135C233.5 186.726 229.805 190.421 225.326 190.421Z" fill="#13A77A"/>
<path d="M198.006 163.772H110.446C105.071 163.772 100.704 159.405 100.704 154.031V135.22C100.704 132.644 102.832 130.517 105.407 130.517H203.38C205.395 130.517 207.075 132.197 207.075 134.212V154.59C207.075 159.629 203.044 163.772 198.006 163.772ZM106.415 136.116V154.031C106.415 156.27 108.206 158.173 110.558 158.173H198.006C199.909 158.173 201.477 156.606 201.477 154.702V136.116H106.415Z" fill="#13A77A"/>
<path d="M232.717 163.772H218.944C213.57 163.772 209.203 159.405 209.203 154.031V135.22C209.203 132.644 211.33 130.517 213.906 130.517H232.717V163.772ZM214.801 136.116V154.031C214.801 156.27 216.593 158.173 218.944 158.173H227.118V136.116H214.801Z" fill="#13A77A"/>
<path d="M146.276 133.316H140.678V187.621H146.276V133.316Z" fill="#13A77A"/>
<path d="M180.203 133.316H174.604V187.621H180.203V133.316Z" fill="#13A77A"/>
<path d="M207.3 200.163C198.902 200.163 192.072 193.333 192.072 184.935C192.072 176.537 198.902 169.707 207.3 169.707C215.697 169.707 222.527 176.537 222.527 184.935C222.527 193.333 215.697 200.163 207.3 200.163ZM207.3 175.305C202.037 175.305 197.67 179.56 197.67 184.935C197.67 190.309 201.925 194.564 207.3 194.564C212.562 194.564 216.929 190.309 216.929 184.935C216.929 179.56 212.562 175.305 207.3 175.305Z" fill="#265C4C"/>
<path d="M207.299 192.437C203.156 192.437 199.797 189.078 199.797 184.936C199.797 180.793 203.156 177.434 207.299 177.434C208.866 177.434 210.098 178.665 210.098 180.233C210.098 181.8 208.866 183.032 207.299 183.032C206.179 183.032 205.395 183.928 205.395 184.936C205.395 185.943 206.291 186.839 207.299 186.839C208.307 186.839 209.202 185.943 209.202 184.936C209.202 183.368 210.434 182.136 212.002 182.136C213.569 182.136 214.801 183.368 214.801 184.936C214.801 189.078 211.442 192.437 207.299 192.437Z" fill="#265C4C"/>
<path d="M115.932 200.163C107.534 200.163 100.704 193.333 100.704 184.935C100.704 176.538 107.534 169.708 115.932 169.708C124.33 169.708 131.16 176.538 131.16 184.935C131.16 193.333 124.33 200.163 115.932 200.163ZM115.932 175.306C110.67 175.306 106.303 179.561 106.303 184.935C106.303 190.31 110.558 194.565 115.932 194.565C121.195 194.565 125.561 190.31 125.561 184.935C125.561 179.561 121.307 175.306 115.932 175.306Z" fill="#265C4C"/>
<path d="M115.932 192.436C111.789 192.436 108.43 189.077 108.43 184.934C108.43 180.791 111.789 177.432 115.932 177.432C117.499 177.432 118.731 178.664 118.731 180.231C118.731 181.799 117.499 183.031 115.932 183.031C114.812 183.031 114.028 183.926 114.028 184.934C114.028 185.942 114.924 186.838 115.932 186.838C117.052 186.838 117.835 185.942 117.835 184.934C117.835 183.366 119.067 182.135 120.635 182.135C122.202 182.135 123.434 183.366 123.434 184.934C123.546 189.077 120.075 192.436 115.932 192.436Z" fill="#265C4C"/>
</svg>
