<svg width="322" height="322" viewBox="0 0 322 322" fill="none" xmlns="http://www.w3.org/2000/svg">
<g clip-path="url(#clip0_94_608)">
<path d="M150.122 96.2973L126.379 119.274L115.468 106.704L115.451 106.684L115.433 106.667C115.135 106.388 114.785 106.17 114.402 106.027C114.023 105.884 113.62 105.818 113.215 105.831C112.791 105.831 112.372 105.922 111.986 106.098C111.599 106.276 111.254 106.536 110.977 106.86C110.977 106.861 110.976 106.862 110.975 106.863L88.3372 132.794C88.3368 132.794 88.3364 132.795 88.3361 132.795C87.8328 133.367 87.5578 134.103 87.5638 134.865V219.956H80.5938C79.7732 219.956 78.9863 220.282 78.4061 220.862C77.8259 221.443 77.5 222.23 77.5 223.05C77.5 223.871 77.8259 224.657 78.4061 225.238C78.9863 225.818 79.7732 226.144 80.5938 226.144H241.406C242.227 226.144 243.014 225.818 243.594 225.238C244.174 224.657 244.5 223.871 244.5 223.05C244.5 222.23 244.174 221.443 243.594 220.862C243.014 220.282 242.227 219.956 241.406 219.956H234.436V147.833C234.442 147.154 234.225 146.492 233.817 145.949L233.817 145.948L216.205 122.604L216.197 122.594L216.188 122.583C215.898 122.238 215.536 121.961 215.127 121.771C214.718 121.581 214.273 121.482 213.822 121.482C213.371 121.482 212.925 121.581 212.517 121.771C212.108 121.961 211.745 122.238 211.455 122.583L211.446 122.594L211.438 122.604L193.852 145.915C193.654 146.11 193.527 146.37 193.441 146.626C193.346 146.905 193.283 147.228 193.24 147.568C193.155 148.248 193.142 149.061 193.155 149.859C193.164 150.412 193.186 150.973 193.206 151.488C193.215 151.717 193.223 151.936 193.23 152.142C193.244 152.558 193.25 152.904 193.245 153.167H184.143L184.143 126.643C184.143 126.643 184.143 126.643 184.143 126.642C184.146 126.221 184.062 125.803 183.897 125.415C183.733 125.027 183.491 124.678 183.186 124.387C183.186 124.386 183.185 124.386 183.184 124.385L154.267 96.298L154.26 96.2904L154.252 96.2832C153.685 95.7787 152.953 95.5 152.194 95.5C151.436 95.5 150.703 95.7787 150.137 96.2832L150.129 96.2901L150.122 96.2973ZM178.112 127.967V165.685L156.877 143.08L156.869 143.071L156.86 143.062C156.283 142.505 155.512 142.193 154.71 142.193C153.908 142.193 153.137 142.505 152.56 143.062L152.551 143.071L152.542 143.08L138.857 157.718V134.932C138.9 134.743 138.874 134.555 138.837 134.405C138.79 134.217 138.707 134.018 138.606 133.818C138.402 133.417 138.09 132.945 137.716 132.437C136.965 131.416 135.915 130.185 134.84 128.974C134.068 128.104 133.277 127.237 132.568 126.46C132.288 126.154 132.022 125.863 131.775 125.59C131.335 125.106 130.957 124.684 130.67 124.35C130.552 124.213 130.455 124.097 130.378 124.001L152.207 102.801L178.112 127.967ZM193.207 210.23H184.143V186.589H193.207V210.23ZM184.143 215.12H193.207V219.956H184.143V215.12ZM193.207 158.058V181.699H184.143V158.058H193.207ZM93.5956 219.956V136.036L113.223 113.576L132.825 136.036V164.22C132.733 164.339 132.589 164.507 132.391 164.722C132.13 165.008 131.797 165.354 131.416 165.744C131.194 165.971 130.956 166.213 130.707 166.466C130.106 167.077 129.444 167.75 128.799 168.428C127.889 169.385 126.998 170.369 126.347 171.221C126.022 171.647 125.746 172.054 125.557 172.419C125.387 172.749 125.24 173.129 125.277 173.487V219.956H93.5956ZM135.841 219.956H131.309V174.59L154.723 149.702L178.112 174.589V219.956H135.841ZM199.239 219.956V148.88L213.809 129.546L228.404 148.881V219.956H199.239Z" fill="#13A77A" stroke="#13A77A"/>
<path d="M103.16 184.292H103.146L103.133 184.293C102.508 184.327 101.921 184.601 101.494 185.058C101.069 185.514 100.836 186.117 100.844 186.741V202.297C100.84 202.613 100.898 202.927 101.016 203.222L101.48 203.036L101.016 203.222C101.133 203.517 101.308 203.786 101.529 204.014C101.751 204.241 102.015 204.423 102.307 204.549L102.505 204.089L102.307 204.549C102.599 204.674 102.913 204.741 103.231 204.745L103.231 204.745H103.237H118.333V204.745L118.346 204.745C118.982 204.728 119.586 204.461 120.027 204.002C120.466 203.544 120.708 202.932 120.701 202.297V186.741C120.704 186.419 120.644 186.099 120.523 185.801C120.401 185.501 120.221 185.229 119.992 185.001C119.764 184.772 119.491 184.592 119.192 184.47C118.894 184.349 118.574 184.288 118.252 184.292H103.16ZM115.862 199.855H105.527V189.183H115.862V199.855Z" fill="#265C4C" stroke="#265C4C"/>
<path d="M163.587 142.496L163.587 142.496H163.594H173.658V142.496L173.664 142.496C173.982 142.491 174.296 142.424 174.588 142.299C174.88 142.173 175.144 141.992 175.366 141.764C175.587 141.536 175.762 141.267 175.879 140.972C175.997 140.678 176.055 140.364 176.051 140.047V129.678C176.055 129.362 175.997 129.048 175.879 128.754C175.762 128.459 175.587 128.189 175.366 127.962L175.007 128.31L175.366 127.962C175.144 127.734 174.88 127.552 174.588 127.427C174.296 127.301 173.982 127.234 173.664 127.23L173.664 127.23H173.658H163.594V127.23L163.587 127.23C163.269 127.234 162.956 127.301 162.664 127.427C162.372 127.552 162.107 127.734 161.886 127.962L162.244 128.31L161.886 127.962C161.664 128.189 161.49 128.459 161.372 128.754C161.255 129.048 161.197 129.362 161.2 129.678V140.047C161.197 140.364 161.255 140.678 161.372 140.972C161.49 141.267 161.664 141.536 161.886 141.764C162.107 141.992 162.372 142.173 162.664 142.299C162.956 142.424 163.269 142.491 163.587 142.496ZM165.915 137.605L165.981 132.121H171.264V137.605H165.915Z" fill="#265C4C" stroke="#265C4C"/>
<path d="M216.324 158.355V158.355L216.311 158.355C215.675 158.372 215.071 158.639 214.631 159.098C214.191 159.556 213.949 160.168 213.957 160.803V197.109C213.949 197.744 214.191 198.357 214.631 198.815C215.071 199.274 215.675 199.541 216.311 199.558L216.311 199.558H216.324H223.866C224.189 199.566 224.511 199.508 224.812 199.39C225.116 199.27 225.392 199.09 225.624 198.861C225.856 198.632 226.039 198.359 226.163 198.057C226.286 197.756 226.348 197.434 226.344 197.109V160.803C226.348 160.478 226.286 160.156 226.163 159.856L225.7 160.045L226.163 159.856C226.039 159.554 225.856 159.28 225.624 159.051C225.392 158.822 225.116 158.643 224.812 158.523L224.629 158.988L224.812 158.523C224.511 158.404 224.189 158.347 223.866 158.355H216.324ZM221.505 194.667H218.718V163.245H221.505V194.667Z" fill="#265C4C" stroke="#265C4C"/>
</g>
<defs>
<clipPath id="clip0_94_608">
<rect width="166" height="166" fill="white" transform="translate(78 78)"/>
</clipPath>
</defs>
</svg>
