<svg width="322" height="322" viewBox="0 0 322 322" fill="none" xmlns="http://www.w3.org/2000/svg">
<path fill-rule="evenodd" clip-rule="evenodd" d="M191.049 148.979C191.575 148.376 191.871 147.558 191.871 146.705C191.871 145.852 191.575 145.033 191.049 144.43C190.523 143.827 189.809 143.488 189.065 143.488H132.935C132.191 143.488 131.477 143.827 130.951 144.43C130.425 145.033 130.129 145.852 130.129 146.705C130.129 147.558 130.425 148.376 130.951 148.979C131.477 149.583 132.191 149.922 132.935 149.922H189.065C189.809 149.922 190.523 149.583 191.049 148.979ZM132.935 169.222H189.065C189.757 169.222 190.423 169.515 190.936 170.042L187.332 175.655H132.935C132.191 175.655 131.477 175.317 130.951 174.713C130.425 174.11 130.129 173.292 130.129 172.439C130.129 171.586 130.425 170.767 130.951 170.164C131.477 169.561 132.191 169.222 132.935 169.222ZM170.952 217.741C166.619 219.215 163.237 220.095 161.554 220.499C161.189 220.588 160.811 220.588 160.446 220.499C156.251 219.492 141.499 215.525 127.783 206.792C110.718 195.925 102.065 182.202 102.065 166.005V119.044C102.066 118.384 102.243 117.74 102.574 117.199C102.904 116.659 103.371 116.247 103.912 116.02L160.041 92.6266C160.66 92.3685 161.34 92.3685 161.959 92.6266L218.088 116.02C218.629 116.247 219.096 116.659 219.426 117.199C219.757 117.74 219.934 118.384 219.935 119.044V166.005C219.935 173.351 218.155 180.188 214.618 186.481L218.103 191.909C220.065 188.764 221.646 185.486 222.839 182.089H228.355C233.563 182.082 238.557 179.708 242.24 175.487C245.923 171.265 247.994 165.542 248 159.572V140.271C247.994 134.301 245.923 128.578 242.24 124.357C238.557 120.135 233.563 117.761 228.355 117.754H225.467C225.259 116.011 224.641 114.366 223.679 112.995C222.717 111.624 221.447 110.58 220.006 109.974L163.877 86.5799C162.018 85.8067 159.982 85.8067 158.123 86.5799L101.994 109.974C100.553 110.58 99.2828 111.624 98.3207 112.995C97.3585 114.366 96.7405 116.011 96.533 117.754H93.6452C88.4367 117.761 83.4432 120.135 79.7603 124.357C76.0774 128.578 74.0058 134.301 74 140.271V159.572C74.0058 165.542 76.0774 171.265 79.7603 175.487C83.4432 179.708 88.4367 182.082 93.6452 182.089H99.1612C103.275 193.811 112.023 204.116 125.057 212.416C139.462 221.588 154.904 225.742 159.294 226.796C160.419 227.068 161.581 227.068 162.706 226.796C164.566 226.349 168.413 225.345 173.325 223.638C172.316 221.79 171.515 219.814 170.952 217.741ZM96.4516 166.005C96.4494 169.253 96.7671 172.49 97.3988 175.655H93.6452C89.9248 175.651 86.358 173.955 83.7274 170.939C81.0967 167.924 79.617 163.836 79.6129 159.572V140.271C79.617 136.007 81.0967 131.919 83.7274 128.904C86.358 125.888 89.9248 124.192 93.6452 124.188H96.4516V166.005ZM238.273 128.904C240.903 131.919 242.383 136.007 242.387 140.271V159.572C242.383 163.836 240.903 167.924 238.273 170.939C235.642 173.955 232.075 175.651 228.355 175.655H224.601C225.233 172.49 225.551 169.253 225.548 166.005V124.188H228.355C232.075 124.192 235.642 125.888 238.273 128.904Z" fill="#13A77A"/>
<path fill-rule="evenodd" clip-rule="evenodd" d="M191.049 148.979C191.575 148.376 191.871 147.558 191.871 146.705C191.871 145.852 191.575 145.033 191.049 144.43C190.523 143.827 189.809 143.488 189.065 143.488H132.935C132.191 143.488 131.477 143.827 130.951 144.43C130.425 145.033 130.129 145.852 130.129 146.705C130.129 147.558 130.425 148.376 130.951 148.979C131.477 149.583 132.191 149.922 132.935 149.922H189.065C189.809 149.922 190.523 149.583 191.049 148.979ZM132.935 169.222H189.065C189.757 169.222 190.423 169.515 190.936 170.042L187.332 175.655H132.935C132.191 175.655 131.477 175.317 130.951 174.713C130.425 174.11 130.129 173.292 130.129 172.439C130.129 171.586 130.425 170.767 130.951 170.164C131.477 169.561 132.191 169.222 132.935 169.222ZM170.952 217.741C166.619 219.215 163.237 220.095 161.554 220.499C161.189 220.588 160.811 220.588 160.446 220.499C156.251 219.492 141.499 215.525 127.783 206.792C110.718 195.925 102.065 182.202 102.065 166.005V119.044C102.066 118.384 102.243 117.74 102.574 117.199C102.904 116.659 103.371 116.247 103.912 116.02L160.041 92.6266C160.66 92.3685 161.34 92.3685 161.959 92.6266L218.088 116.02C218.629 116.247 219.096 116.659 219.426 117.199C219.757 117.74 219.934 118.384 219.935 119.044V166.005C219.935 173.351 218.155 180.188 214.618 186.481L218.103 191.909C220.065 188.764 221.646 185.486 222.839 182.089H228.355C233.563 182.082 238.557 179.708 242.24 175.487C245.923 171.265 247.994 165.542 248 159.572V140.271C247.994 134.301 245.923 128.578 242.24 124.357C238.557 120.135 233.563 117.761 228.355 117.754H225.467C225.259 116.011 224.641 114.366 223.679 112.995C222.717 111.624 221.447 110.58 220.006 109.974L163.877 86.5799C162.018 85.8067 159.982 85.8067 158.123 86.5799L101.994 109.974C100.553 110.58 99.2828 111.624 98.3207 112.995C97.3585 114.366 96.7405 116.011 96.533 117.754H93.6452C88.4367 117.761 83.4432 120.135 79.7603 124.357C76.0774 128.578 74.0058 134.301 74 140.271V159.572C74.0058 165.542 76.0774 171.265 79.7603 175.487C83.4432 179.708 88.4367 182.082 93.6452 182.089H99.1612C103.275 193.811 112.023 204.116 125.057 212.416C139.462 221.588 154.904 225.742 159.294 226.796C160.419 227.068 161.581 227.068 162.706 226.796C164.566 226.349 168.413 225.345 173.325 223.638C172.316 221.79 171.515 219.814 170.952 217.741ZM96.4516 166.005C96.4494 169.253 96.7671 172.49 97.3988 175.655H93.6452C89.9248 175.651 86.358 173.955 83.7274 170.939C81.0967 167.924 79.617 163.836 79.6129 159.572V140.271C79.617 136.007 81.0967 131.919 83.7274 128.904C86.358 125.888 89.9248 124.192 93.6452 124.188H96.4516V166.005ZM238.273 128.904C240.903 131.919 242.383 136.007 242.387 140.271V159.572C242.383 163.836 240.903 167.924 238.273 170.939C235.642 173.955 232.075 175.651 228.355 175.655H224.601C225.233 172.49 225.551 169.253 225.548 166.005V124.188H228.355C232.075 124.192 235.642 125.888 238.273 128.904Z" fill="#13A77A"/>
<path d="M175.619 209.577L175.619 209.575C175.607 204.912 177.105 200.37 179.891 196.625L179.892 196.624C179.933 196.569 179.971 196.513 180.008 196.455L197.5 169.212L214.99 196.454C214.991 196.455 214.991 196.455 214.991 196.455C215.028 196.513 215.067 196.57 215.108 196.625C217.895 200.37 219.393 204.912 219.381 209.575V209.577C219.381 221.606 209.566 231.395 197.5 231.395C185.434 231.395 175.619 221.606 175.619 209.577ZM225.5 209.578C225.516 203.642 223.619 197.858 220.09 193.079L200.076 161.906C199.8 161.475 199.418 161.12 198.968 160.874C198.518 160.629 198.013 160.5 197.5 160.5C196.987 160.5 196.482 160.629 196.032 160.874C195.582 161.12 195.2 161.475 194.924 161.906L174.91 193.079C171.381 197.858 169.485 203.642 169.5 209.577C169.5 224.976 182.062 237.5 197.5 237.5C212.938 237.5 225.499 224.976 225.5 209.578Z" fill="#265C4C" stroke="#265C4C"/>
</svg>
