<svg width="323" height="322" viewBox="0 0 323 322" fill="none" xmlns="http://www.w3.org/2000/svg">
<path fill-rule="evenodd" clip-rule="evenodd" d="M213.388 143.702C213.353 143.255 213.274 142.809 213.149 142.369L200.943 99.6033C200.617 98.4724 200 97.4255 199.145 96.5507C198.29 95.6759 197.221 94.999 196.03 94.5771L196.158 93.2995C196.563 89.2101 195.18 85.1117 192.313 81.9036C189.446 78.6954 185.328 76.6395 180.863 76.1869L167.389 74.8351C162.923 74.3918 158.479 75.5887 155.031 78.1632C151.584 80.7378 149.414 84.4798 148.999 88.5683L148.663 91.9202C140.213 94.3044 132.425 100.056 125.71 108.976C118.158 119.007 114.078 130.155 113.007 133.331C112.688 134.272 112.589 135.267 112.714 136.253C112.732 136.398 112.753 136.56 112.777 136.737L119.655 137.213C119.548 136.514 119.477 135.982 119.435 135.648C119.417 135.517 119.431 135.384 119.474 135.259C120.888 131.063 134.055 94.3387 160.628 97.0047L193.413 100.294C193.643 100.317 193.861 100.405 194.038 100.545C194.215 100.685 194.341 100.87 194.401 101.076L206.428 143.22L213.388 143.702ZM173.234 140.922L175.304 120.287C175.386 119.468 175.11 118.648 174.536 118.006C173.963 117.365 173.139 116.954 172.245 116.864C171.352 116.774 170.462 117.013 169.773 117.528C169.083 118.044 168.649 118.793 168.567 119.611L166.476 140.454L173.234 140.922ZM155.213 139.674L157.339 118.484C157.421 117.666 157.145 116.846 156.571 116.204C155.998 115.562 155.173 115.151 154.28 115.062C153.387 114.972 152.497 115.211 151.807 115.726C151.118 116.241 150.684 116.99 150.602 117.808L148.455 139.206L155.213 139.674ZM161.247 90.8356C159.364 90.6466 157.47 90.6126 155.587 90.734L155.736 89.2442C155.985 86.791 157.287 84.5458 159.355 83.0011C161.424 81.4563 164.09 80.7382 166.77 81.0043L180.244 82.3561C182.923 82.6276 185.394 83.8611 187.114 85.786C188.834 87.7109 189.664 90.1699 189.421 92.6236L189.318 93.6518L161.247 90.8356Z" fill="#13A77A"/>
<g clip-path="url(#clip0_94_565)">
<path fill-rule="evenodd" clip-rule="evenodd" d="M106.157 137C105.677 137 105.201 137.095 104.758 137.278C104.314 137.462 103.911 137.731 103.571 138.071C103.231 138.411 102.962 138.814 102.778 139.257C102.594 139.701 102.5 140.177 102.5 140.657V220.506C102.5 228.97 107.938 236.506 115.968 239.183L159.839 253.811C160.593 254.063 161.407 254.063 162.16 253.811L206.032 239.183C214.062 236.506 219.5 228.97 219.5 220.506V140.657C219.5 140.177 219.405 139.701 219.222 139.257C219.038 138.814 218.768 138.411 218.429 138.071C218.089 137.731 217.686 137.462 217.242 137.278C216.799 137.095 216.323 137 215.843 137H106.157ZM109.814 144.314H212.186V220.506C212.186 225.851 208.782 230.556 203.711 232.246L161 246.483L118.275 232.246C113.205 230.556 109.814 225.851 109.814 220.506V144.314Z" fill="#265C4C"/>
<path fill-rule="evenodd" clip-rule="evenodd" d="M120.786 151.628C120.305 151.628 119.83 151.723 119.386 151.907C118.942 152.09 118.539 152.36 118.199 152.699C117.86 153.039 117.59 153.442 117.407 153.886C117.223 154.33 117.128 154.805 117.128 155.286V166.257C117.128 166.737 117.223 167.213 117.407 167.656C117.59 168.1 117.86 168.503 118.199 168.843C118.539 169.183 118.942 169.452 119.386 169.636C119.83 169.819 120.305 169.914 120.786 169.914C121.266 169.914 121.741 169.819 122.185 169.636C122.629 169.452 123.032 169.183 123.372 168.843C123.711 168.503 123.981 168.1 124.164 167.656C124.348 167.213 124.443 166.737 124.443 166.257V155.286C124.443 154.805 124.348 154.33 124.164 153.886C123.981 153.442 123.711 153.039 123.372 152.699C123.032 152.36 122.629 152.09 122.185 151.907C121.741 151.723 121.266 151.628 120.786 151.628ZM120.786 177.215C120.305 177.214 119.83 177.309 119.386 177.493C118.942 177.676 118.539 177.946 118.199 178.285C117.86 178.625 117.59 179.028 117.407 179.472C117.223 179.916 117.128 180.391 117.128 180.872V191.843C117.128 192.323 117.223 192.799 117.407 193.243C117.59 193.686 117.86 194.089 118.199 194.429C118.539 194.769 118.942 195.038 119.386 195.222C119.83 195.406 120.305 195.5 120.786 195.5C121.266 195.5 121.741 195.406 122.185 195.222C122.629 195.038 123.032 194.769 123.372 194.429C123.711 194.089 123.981 193.686 124.164 193.243C124.348 192.799 124.443 192.323 124.443 191.843V180.872C124.443 180.391 124.348 179.916 124.164 179.472C123.981 179.028 123.711 178.625 123.372 178.285C123.032 177.946 122.629 177.676 122.185 177.493C121.741 177.309 121.266 177.214 120.786 177.215Z" fill="#265C4C"/>
<path fill-rule="evenodd" clip-rule="evenodd" d="M201.214 151.628C200.734 151.628 200.259 151.723 199.815 151.907C199.371 152.09 198.968 152.36 198.628 152.699C198.289 153.039 198.019 153.442 197.836 153.886C197.652 154.33 197.557 154.805 197.557 155.286V166.257C197.557 166.737 197.652 167.213 197.836 167.656C198.019 168.1 198.289 168.503 198.628 168.843C198.968 169.183 199.371 169.452 199.815 169.636C200.259 169.819 200.734 169.914 201.214 169.914C201.695 169.914 202.17 169.819 202.614 169.636C203.058 169.452 203.461 169.183 203.801 168.843C204.14 168.503 204.41 168.1 204.593 167.656C204.777 167.213 204.872 166.737 204.872 166.257V155.286C204.872 154.805 204.777 154.33 204.593 153.886C204.41 153.442 204.14 153.039 203.801 152.699C203.461 152.36 203.058 152.09 202.614 151.907C202.17 151.723 201.695 151.628 201.214 151.628ZM201.214 176.81C200.734 176.81 200.259 176.904 199.815 177.088C199.371 177.272 198.968 177.541 198.628 177.881C198.289 178.22 198.019 178.623 197.836 179.067C197.652 179.511 197.557 179.986 197.557 180.467V191.843C197.557 192.323 197.652 192.799 197.836 193.243C198.019 193.686 198.289 194.089 198.628 194.429C198.968 194.769 199.371 195.038 199.815 195.222C200.259 195.406 200.734 195.5 201.214 195.5C201.695 195.5 202.17 195.406 202.614 195.222C203.058 195.038 203.461 194.769 203.801 194.429C204.14 194.089 204.41 193.686 204.593 193.243C204.777 192.799 204.872 192.323 204.872 191.843V180.467C204.872 179.986 204.777 179.511 204.593 179.067C204.41 178.623 204.14 178.22 203.801 177.881C203.461 177.541 203.058 177.272 202.614 177.088C202.17 176.904 201.695 176.81 201.214 176.81ZM120.786 202.814C120.305 202.814 119.83 202.909 119.386 203.092C118.942 203.276 118.539 203.545 118.199 203.885C117.86 204.225 117.59 204.628 117.407 205.072C117.223 205.515 117.128 205.991 117.128 206.471V218.657C117.128 222.403 119.539 225.758 123.093 226.943L130.664 229.453C131.582 229.757 132.583 229.685 133.448 229.252C134.313 228.82 134.971 228.062 135.279 227.145C135.431 226.69 135.493 226.209 135.459 225.73C135.426 225.25 135.298 224.783 135.084 224.353C134.87 223.923 134.573 223.539 134.21 223.224C133.848 222.909 133.427 222.669 132.971 222.517L125.414 220.007C124.82 219.808 124.443 219.284 124.443 218.657V206.471C124.443 205.991 124.348 205.515 124.164 205.072C123.981 204.628 123.711 204.225 123.372 203.885C123.032 203.545 122.629 203.276 122.185 203.092C121.741 202.909 121.266 202.814 120.786 202.814ZM201.214 202.814C200.734 202.814 200.259 202.909 199.815 203.092C199.371 203.276 198.968 203.545 198.628 203.885C198.289 204.225 198.019 204.628 197.836 205.072C197.652 205.515 197.557 205.991 197.557 206.471V218.657C197.557 219.284 197.18 219.808 196.586 220.007L188.907 222.557C188.452 222.709 188.031 222.95 187.668 223.265C187.306 223.58 187.009 223.964 186.794 224.393C186.58 224.823 186.453 225.291 186.419 225.77C186.386 226.249 186.447 226.73 186.6 227.186C186.752 227.641 186.992 228.062 187.308 228.425C187.623 228.787 188.006 229.084 188.436 229.299C188.866 229.513 189.334 229.64 189.813 229.674C190.292 229.707 190.773 229.646 191.228 229.493L198.893 226.943C202.447 225.758 204.872 222.403 204.872 218.657V206.471C204.872 205.991 204.777 205.515 204.593 205.072C204.41 204.628 204.14 204.225 203.801 203.885C203.461 203.545 203.058 203.276 202.614 203.092C202.17 202.909 201.695 202.814 201.214 202.814ZM146.264 227.186C145.513 227.205 144.787 227.455 144.183 227.902C143.579 228.349 143.128 228.97 142.89 229.682C142.737 230.138 142.676 230.619 142.71 231.098C142.743 231.577 142.87 232.045 143.085 232.475C143.299 232.905 143.596 233.288 143.958 233.603C144.321 233.918 144.742 234.159 145.198 234.311L159.839 239.183C160.593 239.435 161.407 239.435 162.161 239.183L176.721 234.338C177.177 234.186 177.598 233.945 177.961 233.63C178.323 233.315 178.62 232.932 178.834 232.502C179.049 232.072 179.176 231.604 179.209 231.125C179.243 230.646 179.182 230.165 179.029 229.709C178.724 228.79 178.067 228.029 177.202 227.594C176.336 227.159 175.334 227.085 174.414 227.388L161 231.868L147.519 227.375C147.115 227.239 146.69 227.175 146.264 227.186V227.186Z" fill="#265C4C"/>
</g>
<defs>
<clipPath id="clip0_94_565">
<rect width="117" height="117" fill="white" transform="translate(102.5 137)"/>
</clipPath>
</defs>
</svg>
