<svg width="322" height="322" viewBox="0 0 322 322" fill="none" xmlns="http://www.w3.org/2000/svg">
<path fill-rule="evenodd" clip-rule="evenodd" d="M197.049 152.979C197.575 152.376 197.871 151.558 197.871 150.705C197.871 149.852 197.575 149.033 197.049 148.43C196.523 147.827 195.809 147.488 195.065 147.488H180.036C180.46 148.548 180.773 149.655 180.965 150.792C181.142 151.834 181.214 152.882 181.184 153.922H195.065C195.809 153.922 196.523 153.583 197.049 152.979ZM191.438 179.655C191.361 178.869 191.225 178.085 191.03 177.308C190.669 175.868 190.114 174.495 189.389 173.222H195.065C195.809 173.222 196.523 173.561 197.049 174.164C197.575 174.767 197.871 175.586 197.871 176.439C197.871 177.292 197.575 178.11 197.049 178.713C196.523 179.317 195.809 179.655 195.065 179.655H191.438ZM167.882 224.42C172.472 223.294 186.838 219.311 200.217 210.792C217.282 199.925 225.935 186.202 225.935 170.005V123.044C225.934 122.384 225.757 121.74 225.426 121.199C225.096 120.659 224.629 120.247 224.088 120.02L167.959 96.6266C167.34 96.3685 166.66 96.3685 166.041 96.6266L109.912 120.02C109.371 120.247 108.904 120.659 108.574 121.199C108.243 121.74 108.066 122.384 108.065 123.044V170.005C108.065 170.184 108.066 170.362 108.068 170.539L103.965 177.263L104.101 169.222C104.142 166.661 103.566 164.144 102.452 161.868V128.188H99.6452C95.9248 128.192 92.358 129.888 89.7274 132.904C87.0967 135.919 85.617 140.007 85.6129 144.271V152.761C83.6384 153.009 81.7358 153.617 80 154.55V144.271C80.0058 138.301 82.0774 132.578 85.7603 128.357C89.4432 124.135 94.4367 121.761 99.6452 121.754H102.533C102.741 120.011 103.359 118.366 104.321 116.995C105.283 115.624 106.553 114.58 107.994 113.974L164.123 90.5799C165.982 89.8067 168.018 89.8067 169.877 90.5799L226.006 113.974C227.447 114.58 228.717 115.624 229.679 116.995C230.641 118.366 231.259 120.011 231.467 121.754H234.355C239.563 121.761 244.557 124.135 248.24 128.357C251.923 132.578 253.994 138.301 254 144.271V163.572C253.994 169.542 251.923 175.265 248.24 179.487C244.557 183.708 239.563 186.082 234.355 186.089H228.839C224.725 197.811 215.977 208.116 202.943 216.415C188.538 225.588 173.095 229.742 168.706 230.796C167.581 231.068 166.419 231.068 165.294 230.796C164.974 230.719 164.596 230.626 164.163 230.515L164.183 230.482L167.882 224.42ZM244.273 132.904C246.903 135.919 248.383 140.007 248.387 144.271V163.572C248.383 167.836 246.903 171.924 244.273 174.939C241.642 177.955 238.075 179.651 234.355 179.655H230.601C231.233 176.49 231.551 173.253 231.548 170.005V128.188H234.355C238.075 128.192 241.642 129.888 244.273 132.904Z" fill="#265C4C"/>
<path d="M184.648 166.301C182.587 165.041 180.275 164.251 177.881 163.987L179.88 160.712C181.868 157.454 182.607 153.582 181.965 149.792C181.323 146.002 179.342 142.544 176.378 140.04C173.414 137.537 169.663 136.152 165.799 136.136C161.936 136.12 158.214 137.474 155.305 139.953C153.878 137.53 151.845 135.506 149.407 134.082C146.969 132.658 144.21 131.881 141.399 131.829C138.588 131.777 135.823 132.451 133.375 133.785C130.926 135.118 128.879 137.066 127.434 139.436L104.965 176.263L105.101 168.222C105.169 163.976 103.542 159.851 100.574 156.746C97.6063 153.64 93.5392 151.807 89.2596 151.646C84.98 151.485 80.8351 153.008 77.7287 155.885C74.6223 158.761 72.8065 162.756 72.6772 167C68.4069 210.243 70.6209 230.76 95.2583 245.792C106.854 252.848 120.728 255.094 133.836 252.037C146.945 248.979 158.219 240.867 165.183 229.482L190.211 188.46C192.419 184.832 193.073 180.462 192.03 176.308C190.987 172.153 188.332 168.555 184.648 166.301ZM157.237 224.633C151.539 233.949 142.315 240.586 131.59 243.088C120.864 245.589 109.513 243.752 100.026 237.978C90.0036 231.863 84.6519 224.943 82.1293 214.837C79.6562 204.929 79.5949 191.32 81.9165 167.863C81.9287 167.74 81.9357 167.616 81.9376 167.492C81.9529 166.586 82.1478 165.696 82.5112 164.87C82.8746 164.045 83.3994 163.301 84.0555 162.681C84.7117 162.062 85.4864 161.578 86.3354 161.258C87.1844 160.938 88.0911 160.788 89.0037 160.817C90.8468 160.875 92.6021 161.657 93.8835 162.991C94.518 163.652 95.017 164.428 95.3521 165.275C95.6872 166.122 95.8517 167.025 95.8364 167.93L95.4103 193.122C95.3933 194.133 95.7132 195.127 96.3204 195.949C96.9277 196.771 97.7884 197.376 98.769 197.669C99.7496 197.961 100.795 197.926 101.744 197.569C102.693 197.212 103.491 196.552 104.016 195.692L135.38 144.284C136.329 142.73 137.866 141.623 139.654 141.206C141.442 140.789 143.335 141.096 144.916 142.06C146.496 143.025 147.635 144.567 148.083 146.348C148.53 148.129 148.248 150.003 147.3 151.557L127.039 184.765C126.407 185.801 126.219 187.05 126.518 188.238C126.816 189.425 127.575 190.453 128.629 191.096C129.683 191.739 130.944 191.944 132.137 191.666C133.329 191.388 134.354 190.649 134.986 189.613L160.014 148.591C160.962 147.037 162.499 145.93 164.287 145.512C166.076 145.095 167.968 145.403 169.549 146.367C171.13 147.332 172.269 148.874 172.716 150.655C173.163 152.436 172.882 154.309 171.933 155.864L146.905 196.885C146.273 197.922 146.085 199.171 146.384 200.358C146.682 201.545 147.441 202.574 148.495 203.216C149.549 203.859 150.81 204.064 152.003 203.786C153.195 203.508 154.22 202.77 154.852 201.734L170.345 176.339C171.294 174.785 172.831 173.678 174.619 173.26C176.407 172.843 178.3 173.151 179.881 174.115C181.461 175.08 182.6 176.622 183.048 178.403C183.495 180.184 183.213 182.057 182.265 183.612L157.237 224.633Z" fill="#13A77A"/>
</svg>
