<svg width="322" height="322" viewBox="0 0 322 322" fill="none" xmlns="http://www.w3.org/2000/svg">
<path d="M138.943 109.174C131.052 111.349 123.214 113.714 115.437 116.267C114.727 116.497 114.095 116.922 113.615 117.493C113.134 118.064 112.824 118.759 112.719 119.498C108.129 153.942 118.735 179.073 131.387 195.627C136.744 202.707 143.131 208.943 150.336 214.129C153.203 216.151 155.739 217.609 157.735 218.546C158.73 219.018 159.542 219.333 160.163 219.523C160.435 219.619 160.715 219.688 161 219.73C161.282 219.685 161.559 219.615 161.829 219.523C162.458 219.333 163.27 219.018 164.265 218.546C166.253 217.609 168.797 216.143 171.664 214.129C178.869 208.943 185.256 202.706 190.613 195.627C203.265 179.081 213.871 153.942 209.281 119.498C209.177 118.759 208.867 118.064 208.386 117.492C207.906 116.921 207.274 116.496 206.563 116.267C201.169 114.502 192.063 111.627 183.057 109.183C173.859 106.689 165.4 104.841 161 104.841C156.609 104.841 148.141 106.689 138.943 109.183V109.174ZM136.739 100.64C145.729 98.1957 155.283 96 161 96C166.717 96 176.271 98.1957 185.261 100.64C194.458 103.126 203.729 106.067 209.181 107.849C211.461 108.601 213.482 109.982 215.012 111.832C216.542 113.681 217.519 115.925 217.832 118.305C222.77 155.4 211.311 182.892 197.407 201.079C191.512 208.859 184.482 215.711 176.552 221.404C173.81 223.374 170.905 225.107 167.869 226.583C165.549 227.676 163.055 228.571 161 228.571C158.945 228.571 156.459 227.676 154.131 226.583C151.095 225.107 148.19 223.374 145.448 221.404C137.519 215.711 130.489 208.859 124.593 201.079C110.689 182.892 99.23 155.4 104.168 118.305C104.481 115.925 105.458 113.681 106.988 111.832C108.518 109.982 110.539 108.601 112.819 107.849C120.733 105.254 128.709 102.85 136.739 100.64Z" fill="#13A77A"/>
</svg>
