<svg width="323" height="322" viewBox="0 0 323 322" fill="none" xmlns="http://www.w3.org/2000/svg">
<path d="M161.5 219.255C129.117 219.255 102.745 192.883 102.745 160.5C102.745 128.117 129.117 101.551 161.5 101.551C193.883 101.551 220.255 127.923 220.255 160.306C220.255 192.689 193.883 219.255 161.5 219.255ZM161.5 109.308C133.383 109.308 110.308 132.383 110.308 160.5C110.308 188.617 133.189 211.498 161.306 211.498C189.423 211.498 212.304 188.617 212.304 160.5C212.304 132.383 189.617 109.308 161.5 109.308Z" fill="#13A77A"/>
<path d="M162.469 192.883H161.5C141.915 192.883 132.995 178.34 131.25 170.777C130.668 168.644 132.025 166.511 134.159 166.123C136.292 165.542 138.425 166.899 138.812 169.032C139.006 169.614 143.272 185.321 161.694 185.321H162.663C181.085 185.321 185.351 169.808 185.545 169.032C186.126 166.899 188.259 165.736 190.199 166.317C192.332 166.899 193.495 168.838 193.107 170.971C190.78 178.534 182.054 192.883 162.469 192.883Z" fill="#13A77A"/>
<path d="M141.139 155.846C144.888 155.846 147.926 152.808 147.926 149.059C147.926 145.311 144.888 142.272 141.139 142.272C137.391 142.272 134.353 145.311 134.353 149.059C134.353 152.808 137.391 155.846 141.139 155.846Z" fill="#13A77A"/>
<path d="M181.279 155.846C185.027 155.846 188.066 152.808 188.066 149.059C188.066 145.311 185.027 142.272 181.279 142.272C177.531 142.272 174.492 145.311 174.492 149.059C174.492 152.808 177.531 155.846 181.279 155.846Z" fill="#13A77A"/>
</svg>
