<svg width="322" height="322" viewBox="0 0 322 322" fill="none" xmlns="http://www.w3.org/2000/svg">
<path d="M203.519 108.264L188.469 113.639C170.194 120.089 150.844 120.089 132.569 113.639L117.519 108.264C107.306 104.502 96.0187 109.339 90.6437 120.089C83.1187 135.677 83.1187 153.952 90.6437 170.077C95.4812 180.289 106.769 185.664 117.519 181.902L132.569 176.527C150.844 170.077 170.194 170.077 188.469 176.527L203.519 181.902C213.731 185.664 225.556 180.827 230.394 170.077C237.919 154.489 237.919 136.214 230.394 120.089C225.019 109.339 213.731 104.502 203.519 108.264Z" stroke="#13A77A" stroke-width="6" stroke-miterlimit="10" stroke-linecap="round" stroke-linejoin="round"/>
<path d="M85.269 150.189V177.064C85.269 185.664 86.8815 194.264 90.644 201.789C95.4815 212.001 106.769 217.376 117.519 213.614L132.569 208.239C150.844 201.789 170.194 201.789 188.469 208.239L203.519 213.614C213.732 217.376 225.557 212.539 230.394 201.789C234.157 193.726 235.769 185.664 235.769 177.064V150.189" stroke="#13A77A" stroke-width="6" stroke-miterlimit="10" stroke-linecap="round" stroke-linejoin="round"/>
<path d="M155.144 144.814H165.894" stroke="#265C4C" stroke-width="6" stroke-miterlimit="10" stroke-linecap="round" stroke-linejoin="round"/>
<path d="M106.769 144.814H117.519" stroke="#265C4C" stroke-width="6" stroke-miterlimit="10" stroke-linecap="round" stroke-linejoin="round"/>
<path d="M203.519 144.814H214.269" stroke="#265C4C" stroke-width="6" stroke-miterlimit="10" stroke-linecap="round" stroke-linejoin="round"/>
<path d="M182.019 134.064H192.769" stroke="#265C4C" stroke-width="6" stroke-miterlimit="10" stroke-linecap="round" stroke-linejoin="round"/>
<path d="M182.019 155.564H192.769" stroke="#265C4C" stroke-width="6" stroke-miterlimit="10" stroke-linecap="round" stroke-linejoin="round"/>
<path d="M128.269 134.064H139.019" stroke="#265C4C" stroke-width="6" stroke-miterlimit="10" stroke-linecap="round" stroke-linejoin="round"/>
<path d="M128.269 155.564H139.019" stroke="#265C4C" stroke-width="6" stroke-miterlimit="10" stroke-linecap="round" stroke-linejoin="round"/>
</svg>
