<svg width="322" height="322" viewBox="0 0 322 322" fill="none" xmlns="http://www.w3.org/2000/svg">
<path fill-rule="evenodd" clip-rule="evenodd" d="M197.049 152.979C197.575 152.376 197.871 151.558 197.871 150.705C197.871 149.852 197.575 149.033 197.049 148.43C196.523 147.827 195.809 147.488 195.065 147.488H180.036C180.46 148.548 180.773 149.655 180.965 150.792C181.142 151.834 181.214 152.882 181.184 153.922H195.065C195.809 153.922 196.523 153.583 197.049 152.979ZM191.438 179.655C191.361 178.869 191.225 178.085 191.03 177.308C190.669 175.868 190.114 174.495 189.389 173.222H195.065C195.809 173.222 196.523 173.561 197.049 174.164C197.575 174.767 197.871 175.586 197.871 176.439C197.871 177.292 197.575 178.11 197.049 178.713C196.523 179.317 195.809 179.655 195.065 179.655H191.438ZM167.882 224.42C172.472 223.294 186.838 219.311 200.217 210.792C217.282 199.925 225.935 186.202 225.935 170.005V123.044C225.934 122.384 225.757 121.74 225.426 121.199C225.096 120.659 224.629 120.247 224.088 120.02L167.959 96.6266C167.34 96.3685 166.66 96.3685 166.041 96.6266L109.912 120.02C109.371 120.247 108.904 120.659 108.574 121.199C108.243 121.74 108.066 122.384 108.065 123.044V170.005C108.065 170.184 108.066 170.362 108.068 170.539L103.965 177.263L104.101 169.222C104.142 166.661 103.566 164.144 102.452 161.868V128.188H99.6452C95.9248 128.192 92.358 129.888 89.7274 132.904C87.0967 135.919 85.617 140.007 85.6129 144.271V152.761C83.6384 153.009 81.7358 153.617 80 154.55V144.271C80.0058 138.301 82.0774 132.578 85.7603 128.357C89.4432 124.135 94.4367 121.761 99.6452 121.754H102.533C102.741 120.011 103.359 118.366 104.321 116.995C105.283 115.624 106.553 114.58 107.994 113.974L164.123 90.5799C165.982 89.8067 168.018 89.8067 169.877 90.5799L226.006 113.974C227.447 114.58 228.717 115.624 229.679 116.995C230.641 118.366 231.259 120.011 231.467 121.754H234.355C239.563 121.761 244.557 124.135 248.24 128.357C251.923 132.578 253.994 138.301 254 144.271V163.572C253.994 169.542 251.923 175.265 248.24 179.487C244.557 183.708 239.563 186.082 234.355 186.089H228.839C224.725 197.811 215.977 208.116 202.943 216.415C188.538 225.588 173.095 229.742 168.706 230.796C167.581 231.068 166.419 231.068 165.294 230.796C164.974 230.719 164.596 230.626 164.163 230.515L164.183 230.482L167.882 224.42ZM244.273 132.904C246.903 135.919 248.383 140.007 248.387 144.271V163.572C248.383 167.836 246.903 171.924 244.273 174.939C241.642 177.955 238.075 179.651 234.355 179.655H230.601C231.233 176.49 231.551 173.253 231.548 170.005V128.188H234.355C238.075 128.192 241.642 129.888 244.273 132.904Z" fill="#265C4C"/>
<path d="M184.648 168.301C182.587 167.041 180.275 166.251 177.881 165.987L179.88 162.712C181.867 159.454 182.607 155.582 181.965 151.792C181.323 148.002 179.342 144.544 176.378 142.04C173.414 139.537 169.663 138.152 165.799 138.136C161.936 138.12 158.214 139.474 155.305 141.953C153.877 139.53 151.845 137.506 149.407 136.082C146.969 134.658 144.209 133.881 141.399 133.829C138.588 133.777 135.823 134.451 133.375 135.785C130.926 137.118 128.879 139.066 127.434 141.436L104.965 178.263L105.101 170.222C105.169 165.976 103.541 161.851 100.574 158.746C97.6061 155.64 93.5391 153.807 89.2595 153.646C84.9799 153.485 80.835 155.008 77.7286 157.885C74.6222 160.761 72.8064 164.756 72.6771 169C68.4068 212.243 70.6207 232.76 95.2582 247.792C106.853 254.848 120.727 257.094 133.836 254.037C146.945 250.979 158.219 242.867 165.183 231.482L190.211 190.46C192.419 186.832 193.073 182.462 192.03 178.308C190.987 174.153 188.332 170.555 184.648 168.301V168.301ZM157.237 226.633C151.539 235.949 142.315 242.586 131.589 245.088C120.864 247.589 109.512 245.752 100.025 239.978C90.0034 233.863 84.6518 226.943 82.1292 216.837C79.6561 206.929 79.5948 193.32 81.9164 169.863C81.9286 169.74 81.9356 169.616 81.9375 169.492C81.9528 168.586 82.1477 167.696 82.5111 166.87C82.8745 166.045 83.3993 165.301 84.0554 164.681C84.7116 164.062 85.4863 163.578 86.3353 163.258C87.1843 162.938 88.091 162.788 89.0036 162.817C90.8467 162.875 92.602 163.657 93.8834 164.991C94.5178 165.652 95.0169 166.428 95.352 167.275C95.687 168.122 95.8516 169.025 95.8363 169.93L95.4102 195.122C95.3931 196.133 95.7131 197.127 96.3203 197.949C96.9276 198.771 97.7883 199.376 98.7689 199.669C99.7495 199.961 100.795 199.926 101.744 199.569C102.693 199.211 103.491 198.552 104.016 197.692L135.38 146.284C136.328 144.73 137.866 143.623 139.654 143.206C141.442 142.789 143.335 143.096 144.915 144.06C146.496 145.025 147.635 146.567 148.082 148.348C148.53 150.129 148.248 152.003 147.3 153.557L127.039 186.765C126.407 187.801 126.219 189.05 126.517 190.238C126.816 191.425 127.575 192.453 128.629 193.096C129.683 193.739 130.944 193.944 132.136 193.666C133.329 193.388 134.353 192.649 134.986 191.613L160.014 150.591C160.962 149.037 162.499 147.93 164.287 147.512C166.076 147.095 167.968 147.403 169.549 148.367C171.129 149.332 172.269 150.874 172.716 152.655C173.163 154.436 172.881 156.309 171.933 157.864L146.905 198.885C146.273 199.922 146.085 201.171 146.383 202.358C146.682 203.545 147.441 204.574 148.495 205.216C149.549 205.859 150.81 206.064 152.002 205.786C153.195 205.508 154.219 204.77 154.852 203.734L170.345 178.339C171.293 176.785 172.831 175.678 174.619 175.26C176.407 174.843 178.3 175.151 179.88 176.115C181.461 177.08 182.6 178.622 183.047 180.403C183.495 182.184 183.213 184.057 182.265 185.612L157.237 226.633Z" fill="#13A77A"/>
</svg>
