<svg width="323" height="322" viewBox="0 0 323 322" fill="none" xmlns="http://www.w3.org/2000/svg">
<path d="M175.907 96C175.907 96 181.669 147.854 181.669 162.258C181.669 174.136 175.412 184.112 167.265 188.186C155.742 193.947 126.934 208.351 112.53 208.351H102.735C101.527 210.555 100.93 213.041 101.006 215.553C101.006 218.227 102.069 220.792 103.96 222.683C105.851 224.574 108.415 225.636 111.089 225.636H207.596C211.416 225.636 215.08 224.118 217.781 221.417C220.482 218.716 222 215.052 222 211.232C222 193.947 213.358 179.543 213.358 162.258C213.358 144.974 222 96 222 96" stroke="#13A77A" stroke-width="5" stroke-linecap="round" stroke-linejoin="round"/>
<path d="M204.715 193.947C204.715 197.003 203.501 199.934 201.34 202.095C199.179 204.256 196.248 205.47 193.192 205.47" stroke="#265C4C" stroke-width="5" stroke-miterlimit="10" stroke-linecap="round"/>
</svg>
