<svg width="322" height="322" viewBox="0 0 322 322" fill="none" xmlns="http://www.w3.org/2000/svg">
<mask id="path-1-inside-1_56_581" fill="white">
<path d="M220.929 175.607V190.714C220.929 199.579 217.571 207.08 210.857 213.218V228.482C210.857 229.217 210.621 229.82 210.149 230.292C209.677 230.764 209.074 231 208.339 231H203.304C202.569 231 201.966 230.764 201.494 230.292C201.022 229.82 200.786 229.217 200.786 228.482V219.198C197.481 220.352 194.124 220.929 190.714 220.929H130.286C126.876 220.929 123.519 220.352 120.214 219.198V227.853C120.214 228.744 119.965 229.492 119.467 230.095C118.968 230.698 118.378 231 117.696 231H112.661C111.979 231 111.389 230.698 110.89 230.095C110.392 229.492 110.143 228.744 110.143 227.853V213.218C103.429 207.08 100.071 199.579 100.071 190.714V175.607H220.929ZM145.393 142.875C145.393 143.609 145.157 144.213 144.685 144.685C144.213 145.157 143.609 145.393 142.875 145.393C142.141 145.393 141.537 145.157 141.065 144.685C140.593 144.213 140.357 143.609 140.357 142.875C140.357 142.141 140.593 141.537 141.065 141.065C141.537 140.593 142.141 140.357 142.875 140.357C143.609 140.357 144.213 140.593 144.685 141.065C145.157 141.537 145.393 142.141 145.393 142.875ZM150.429 137.839C150.429 138.574 150.193 139.177 149.72 139.649C149.248 140.121 148.645 140.357 147.911 140.357C147.176 140.357 146.573 140.121 146.101 139.649C145.629 139.177 145.393 138.574 145.393 137.839C145.393 137.105 145.629 136.502 146.101 136.03C146.573 135.557 147.176 135.321 147.911 135.321C148.645 135.321 149.248 135.557 149.72 136.03C150.193 136.502 150.429 137.105 150.429 137.839ZM145.393 132.804C145.393 133.538 145.157 134.141 144.685 134.613C144.213 135.085 143.609 135.321 142.875 135.321C142.141 135.321 141.537 135.085 141.065 134.613C140.593 134.141 140.357 133.538 140.357 132.804C140.357 132.069 140.593 131.466 141.065 130.994C141.537 130.522 142.141 130.286 142.875 130.286C143.609 130.286 144.213 130.522 144.685 130.994C145.157 131.466 145.393 132.069 145.393 132.804ZM155.464 132.804C155.464 133.538 155.228 134.141 154.756 134.613C154.284 135.085 153.681 135.321 152.946 135.321C152.212 135.321 151.609 135.085 151.137 134.613C150.665 134.141 150.429 133.538 150.429 132.804C150.429 132.069 150.665 131.466 151.137 130.994C151.609 130.522 152.212 130.286 152.946 130.286C153.681 130.286 154.284 130.522 154.756 130.994C155.228 131.466 155.464 132.069 155.464 132.804ZM150.429 127.768C150.429 128.502 150.193 129.105 149.72 129.578C149.248 130.05 148.645 130.286 147.911 130.286C147.176 130.286 146.573 130.05 146.101 129.578C145.629 129.105 145.393 128.502 145.393 127.768C145.393 127.033 145.629 126.43 146.101 125.958C146.573 125.486 147.176 125.25 147.911 125.25C148.645 125.25 149.248 125.486 149.72 125.958C150.193 126.43 150.429 127.033 150.429 127.768ZM145.393 122.732C145.393 123.467 145.157 124.07 144.685 124.542C144.213 125.014 143.609 125.25 142.875 125.25C142.141 125.25 141.537 125.014 141.065 124.542C140.593 124.07 140.357 123.467 140.357 122.732C140.357 121.998 140.593 121.395 141.065 120.922C141.537 120.45 142.141 120.214 142.875 120.214C143.609 120.214 144.213 120.45 144.685 120.922C145.157 121.395 145.393 121.998 145.393 122.732ZM231 163.018V168.054C231 168.788 230.764 169.391 230.292 169.863C229.82 170.335 229.217 170.571 228.482 170.571H92.5179C91.7835 170.571 91.1802 170.335 90.7081 169.863C90.236 169.391 90 168.788 90 168.054V163.018C90 162.283 90.236 161.68 90.7081 161.208C91.1802 160.736 91.7835 160.5 92.5179 160.5H100.071V110.143C100.071 104.583 102.039 99.8354 105.973 95.9012C109.907 91.9671 114.654 90 120.214 90C125.879 90 130.705 92.0458 134.692 96.1373C137.105 95.1406 139.675 94.8259 142.403 95.1931C145.131 95.5603 147.57 96.5831 149.72 98.2617L151.451 96.5307C152.028 95.9537 152.605 95.9537 153.182 96.5307L156.487 99.8354C157.064 100.412 157.064 100.989 156.487 101.566L131.781 126.273C131.204 126.85 130.627 126.85 130.05 126.273L126.745 122.968C126.168 122.391 126.168 121.814 126.745 121.237L128.476 119.506C126.588 117.093 125.525 114.366 125.289 111.323C125.053 108.281 125.67 105.448 127.138 102.825C125.198 100.989 122.89 100.071 120.214 100.071C117.434 100.071 115.061 101.055 113.093 103.022C111.126 104.989 110.143 107.363 110.143 110.143V160.5H228.482C229.217 160.5 229.82 160.736 230.292 161.208C230.764 161.68 231 162.283 231 163.018ZM160.5 127.768C160.5 128.502 160.264 129.105 159.792 129.578C159.32 130.05 158.717 130.286 157.982 130.286C157.248 130.286 156.645 130.05 156.172 129.578C155.7 129.105 155.464 128.502 155.464 127.768C155.464 127.033 155.7 126.43 156.172 125.958C156.645 125.486 157.248 125.25 157.982 125.25C158.717 125.25 159.32 125.486 159.792 125.958C160.264 126.43 160.5 127.033 160.5 127.768ZM155.464 122.732C155.464 123.467 155.228 124.07 154.756 124.542C154.284 125.014 153.681 125.25 152.946 125.25C152.212 125.25 151.609 125.014 151.137 124.542C150.665 124.07 150.429 123.467 150.429 122.732C150.429 121.998 150.665 121.395 151.137 120.922C151.609 120.45 152.212 120.214 152.946 120.214C153.681 120.214 154.284 120.45 154.756 120.922C155.228 121.395 155.464 121.998 155.464 122.732ZM150.429 117.696C150.429 118.431 150.193 119.034 149.72 119.506C149.248 119.978 148.645 120.214 147.911 120.214C147.176 120.214 146.573 119.978 146.101 119.506C145.629 119.034 145.393 118.431 145.393 117.696C145.393 116.962 145.629 116.359 146.101 115.887C146.573 115.415 147.176 115.179 147.911 115.179C148.645 115.179 149.248 115.415 149.72 115.887C150.193 116.359 150.429 116.962 150.429 117.696ZM165.536 122.732C165.536 123.467 165.3 124.07 164.828 124.542C164.355 125.014 163.752 125.25 163.018 125.25C162.283 125.25 161.68 125.014 161.208 124.542C160.736 124.07 160.5 123.467 160.5 122.732C160.5 121.998 160.736 121.395 161.208 120.922C161.68 120.45 162.283 120.214 163.018 120.214C163.752 120.214 164.355 120.45 164.828 120.922C165.3 121.395 165.536 121.998 165.536 122.732ZM160.5 117.696C160.5 118.431 160.264 119.034 159.792 119.506C159.32 119.978 158.717 120.214 157.982 120.214C157.248 120.214 156.645 119.978 156.172 119.506C155.7 119.034 155.464 118.431 155.464 117.696C155.464 116.962 155.7 116.359 156.172 115.887C156.645 115.415 157.248 115.179 157.982 115.179C158.717 115.179 159.32 115.415 159.792 115.887C160.264 116.359 160.5 116.962 160.5 117.696ZM155.464 112.661C155.464 113.395 155.228 113.998 154.756 114.47C154.284 114.943 153.681 115.179 152.946 115.179C152.212 115.179 151.609 114.943 151.137 114.47C150.665 113.998 150.429 113.395 150.429 112.661C150.429 111.926 150.665 111.323 151.137 110.851C151.609 110.379 152.212 110.143 152.946 110.143C153.681 110.143 154.284 110.379 154.756 110.851C155.228 111.323 155.464 111.926 155.464 112.661ZM170.571 117.696C170.571 118.431 170.335 119.034 169.863 119.506C169.391 119.978 168.788 120.214 168.054 120.214C167.319 120.214 166.716 119.978 166.244 119.506C165.772 119.034 165.536 118.431 165.536 117.696C165.536 116.962 165.772 116.359 166.244 115.887C166.716 115.415 167.319 115.179 168.054 115.179C168.788 115.179 169.391 115.415 169.863 115.887C170.335 116.359 170.571 116.962 170.571 117.696ZM165.536 112.661C165.536 113.395 165.3 113.998 164.828 114.47C164.355 114.943 163.752 115.179 163.018 115.179C162.283 115.179 161.68 114.943 161.208 114.47C160.736 113.998 160.5 113.395 160.5 112.661C160.5 111.926 160.736 111.323 161.208 110.851C161.68 110.379 162.283 110.143 163.018 110.143C163.752 110.143 164.355 110.379 164.828 110.851C165.3 111.323 165.536 111.926 165.536 112.661ZM175.607 112.661C175.607 113.395 175.371 113.998 174.899 114.47C174.427 114.943 173.824 115.179 173.089 115.179C172.355 115.179 171.752 114.943 171.28 114.47C170.807 113.998 170.571 113.395 170.571 112.661C170.571 111.926 170.807 111.323 171.28 110.851C171.752 110.379 172.355 110.143 173.089 110.143C173.824 110.143 174.427 110.379 174.899 110.851C175.371 111.323 175.607 111.926 175.607 112.661Z"/>
</mask>
<path d="M220.929 175.607V190.714C220.929 199.579 217.571 207.08 210.857 213.218V228.482C210.857 229.217 210.621 229.82 210.149 230.292C209.677 230.764 209.074 231 208.339 231H203.304C202.569 231 201.966 230.764 201.494 230.292C201.022 229.82 200.786 229.217 200.786 228.482V219.198C197.481 220.352 194.124 220.929 190.714 220.929H130.286C126.876 220.929 123.519 220.352 120.214 219.198V227.853C120.214 228.744 119.965 229.492 119.467 230.095C118.968 230.698 118.378 231 117.696 231H112.661C111.979 231 111.389 230.698 110.89 230.095C110.392 229.492 110.143 228.744 110.143 227.853V213.218C103.429 207.08 100.071 199.579 100.071 190.714V175.607H220.929ZM145.393 142.875C145.393 143.609 145.157 144.213 144.685 144.685C144.213 145.157 143.609 145.393 142.875 145.393C142.141 145.393 141.537 145.157 141.065 144.685C140.593 144.213 140.357 143.609 140.357 142.875C140.357 142.141 140.593 141.537 141.065 141.065C141.537 140.593 142.141 140.357 142.875 140.357C143.609 140.357 144.213 140.593 144.685 141.065C145.157 141.537 145.393 142.141 145.393 142.875ZM150.429 137.839C150.429 138.574 150.193 139.177 149.72 139.649C149.248 140.121 148.645 140.357 147.911 140.357C147.176 140.357 146.573 140.121 146.101 139.649C145.629 139.177 145.393 138.574 145.393 137.839C145.393 137.105 145.629 136.502 146.101 136.03C146.573 135.557 147.176 135.321 147.911 135.321C148.645 135.321 149.248 135.557 149.72 136.03C150.193 136.502 150.429 137.105 150.429 137.839ZM145.393 132.804C145.393 133.538 145.157 134.141 144.685 134.613C144.213 135.085 143.609 135.321 142.875 135.321C142.141 135.321 141.537 135.085 141.065 134.613C140.593 134.141 140.357 133.538 140.357 132.804C140.357 132.069 140.593 131.466 141.065 130.994C141.537 130.522 142.141 130.286 142.875 130.286C143.609 130.286 144.213 130.522 144.685 130.994C145.157 131.466 145.393 132.069 145.393 132.804ZM155.464 132.804C155.464 133.538 155.228 134.141 154.756 134.613C154.284 135.085 153.681 135.321 152.946 135.321C152.212 135.321 151.609 135.085 151.137 134.613C150.665 134.141 150.429 133.538 150.429 132.804C150.429 132.069 150.665 131.466 151.137 130.994C151.609 130.522 152.212 130.286 152.946 130.286C153.681 130.286 154.284 130.522 154.756 130.994C155.228 131.466 155.464 132.069 155.464 132.804ZM150.429 127.768C150.429 128.502 150.193 129.105 149.72 129.578C149.248 130.05 148.645 130.286 147.911 130.286C147.176 130.286 146.573 130.05 146.101 129.578C145.629 129.105 145.393 128.502 145.393 127.768C145.393 127.033 145.629 126.43 146.101 125.958C146.573 125.486 147.176 125.25 147.911 125.25C148.645 125.25 149.248 125.486 149.72 125.958C150.193 126.43 150.429 127.033 150.429 127.768ZM145.393 122.732C145.393 123.467 145.157 124.07 144.685 124.542C144.213 125.014 143.609 125.25 142.875 125.25C142.141 125.25 141.537 125.014 141.065 124.542C140.593 124.07 140.357 123.467 140.357 122.732C140.357 121.998 140.593 121.395 141.065 120.922C141.537 120.45 142.141 120.214 142.875 120.214C143.609 120.214 144.213 120.45 144.685 120.922C145.157 121.395 145.393 121.998 145.393 122.732ZM231 163.018V168.054C231 168.788 230.764 169.391 230.292 169.863C229.82 170.335 229.217 170.571 228.482 170.571H92.5179C91.7835 170.571 91.1802 170.335 90.7081 169.863C90.236 169.391 90 168.788 90 168.054V163.018C90 162.283 90.236 161.68 90.7081 161.208C91.1802 160.736 91.7835 160.5 92.5179 160.5H100.071V110.143C100.071 104.583 102.039 99.8354 105.973 95.9012C109.907 91.9671 114.654 90 120.214 90C125.879 90 130.705 92.0458 134.692 96.1373C137.105 95.1406 139.675 94.8259 142.403 95.1931C145.131 95.5603 147.57 96.5831 149.72 98.2617L151.451 96.5307C152.028 95.9537 152.605 95.9537 153.182 96.5307L156.487 99.8354C157.064 100.412 157.064 100.989 156.487 101.566L131.781 126.273C131.204 126.85 130.627 126.85 130.05 126.273L126.745 122.968C126.168 122.391 126.168 121.814 126.745 121.237L128.476 119.506C126.588 117.093 125.525 114.366 125.289 111.323C125.053 108.281 125.67 105.448 127.138 102.825C125.198 100.989 122.89 100.071 120.214 100.071C117.434 100.071 115.061 101.055 113.093 103.022C111.126 104.989 110.143 107.363 110.143 110.143V160.5H228.482C229.217 160.5 229.82 160.736 230.292 161.208C230.764 161.68 231 162.283 231 163.018ZM160.5 127.768C160.5 128.502 160.264 129.105 159.792 129.578C159.32 130.05 158.717 130.286 157.982 130.286C157.248 130.286 156.645 130.05 156.172 129.578C155.7 129.105 155.464 128.502 155.464 127.768C155.464 127.033 155.7 126.43 156.172 125.958C156.645 125.486 157.248 125.25 157.982 125.25C158.717 125.25 159.32 125.486 159.792 125.958C160.264 126.43 160.5 127.033 160.5 127.768ZM155.464 122.732C155.464 123.467 155.228 124.07 154.756 124.542C154.284 125.014 153.681 125.25 152.946 125.25C152.212 125.25 151.609 125.014 151.137 124.542C150.665 124.07 150.429 123.467 150.429 122.732C150.429 121.998 150.665 121.395 151.137 120.922C151.609 120.45 152.212 120.214 152.946 120.214C153.681 120.214 154.284 120.45 154.756 120.922C155.228 121.395 155.464 121.998 155.464 122.732ZM150.429 117.696C150.429 118.431 150.193 119.034 149.72 119.506C149.248 119.978 148.645 120.214 147.911 120.214C147.176 120.214 146.573 119.978 146.101 119.506C145.629 119.034 145.393 118.431 145.393 117.696C145.393 116.962 145.629 116.359 146.101 115.887C146.573 115.415 147.176 115.179 147.911 115.179C148.645 115.179 149.248 115.415 149.72 115.887C150.193 116.359 150.429 116.962 150.429 117.696ZM165.536 122.732C165.536 123.467 165.3 124.07 164.828 124.542C164.355 125.014 163.752 125.25 163.018 125.25C162.283 125.25 161.68 125.014 161.208 124.542C160.736 124.07 160.5 123.467 160.5 122.732C160.5 121.998 160.736 121.395 161.208 120.922C161.68 120.45 162.283 120.214 163.018 120.214C163.752 120.214 164.355 120.45 164.828 120.922C165.3 121.395 165.536 121.998 165.536 122.732ZM160.5 117.696C160.5 118.431 160.264 119.034 159.792 119.506C159.32 119.978 158.717 120.214 157.982 120.214C157.248 120.214 156.645 119.978 156.172 119.506C155.7 119.034 155.464 118.431 155.464 117.696C155.464 116.962 155.7 116.359 156.172 115.887C156.645 115.415 157.248 115.179 157.982 115.179C158.717 115.179 159.32 115.415 159.792 115.887C160.264 116.359 160.5 116.962 160.5 117.696ZM155.464 112.661C155.464 113.395 155.228 113.998 154.756 114.47C154.284 114.943 153.681 115.179 152.946 115.179C152.212 115.179 151.609 114.943 151.137 114.47C150.665 113.998 150.429 113.395 150.429 112.661C150.429 111.926 150.665 111.323 151.137 110.851C151.609 110.379 152.212 110.143 152.946 110.143C153.681 110.143 154.284 110.379 154.756 110.851C155.228 111.323 155.464 111.926 155.464 112.661ZM170.571 117.696C170.571 118.431 170.335 119.034 169.863 119.506C169.391 119.978 168.788 120.214 168.054 120.214C167.319 120.214 166.716 119.978 166.244 119.506C165.772 119.034 165.536 118.431 165.536 117.696C165.536 116.962 165.772 116.359 166.244 115.887C166.716 115.415 167.319 115.179 168.054 115.179C168.788 115.179 169.391 115.415 169.863 115.887C170.335 116.359 170.571 116.962 170.571 117.696ZM165.536 112.661C165.536 113.395 165.3 113.998 164.828 114.47C164.355 114.943 163.752 115.179 163.018 115.179C162.283 115.179 161.68 114.943 161.208 114.47C160.736 113.998 160.5 113.395 160.5 112.661C160.5 111.926 160.736 111.323 161.208 110.851C161.68 110.379 162.283 110.143 163.018 110.143C163.752 110.143 164.355 110.379 164.828 110.851C165.3 111.323 165.536 111.926 165.536 112.661ZM175.607 112.661C175.607 113.395 175.371 113.998 174.899 114.47C174.427 114.943 173.824 115.179 173.089 115.179C172.355 115.179 171.752 114.943 171.28 114.47C170.807 113.998 170.571 113.395 170.571 112.661C170.571 111.926 170.807 111.323 171.28 110.851C171.752 110.379 172.355 110.143 173.089 110.143C173.824 110.143 174.427 110.379 174.899 110.851C175.371 111.323 175.607 111.926 175.607 112.661Z" stroke="#13A77A" stroke-width="8" mask="url(#path-1-inside-1_56_581)"/>
<circle cx="143" cy="143" r="2" fill="#265C4C"/>
<circle cx="148" cy="138" r="2" fill="#265C4C"/>
<circle cx="153" cy="133" r="2" fill="#265C4C"/>
<circle cx="158" cy="128" r="2" fill="#265C4C"/>
<circle cx="163" cy="123" r="2" fill="#265C4C"/>
<circle cx="168" cy="118" r="2" fill="#265C4C"/>
<circle cx="173" cy="113" r="2" fill="#265C4C"/>
<circle cx="163" cy="113" r="2" fill="#265C4C"/>
<circle cx="158" cy="118" r="2" fill="#265C4C"/>
<circle cx="153" cy="123" r="2" fill="#265C4C"/>
<circle cx="148" cy="128" r="2" fill="#265C4C"/>
<circle cx="143" cy="133" r="2" fill="#265C4C"/>
<circle cx="143" cy="123" r="2" fill="#265C4C"/>
<circle cx="148" cy="118" r="2" fill="#265C4C"/>
<circle cx="153" cy="113" r="2" fill="#265C4C"/>
</svg>
