<svg width="143" height="175" viewBox="0 0 143 175" fill="none" xmlns="http://www.w3.org/2000/svg">
<rect x="13.4231" y="87.4436" width="70.4619" height="14.3588" rx="3" stroke="#13A77A" stroke-width="6"/>
<rect x="126.491" y="3" width="13.5088" height="20.9442" rx="1" stroke="#13A77A" stroke-width="5"/>
<rect x="34.386" y="42.6836" width="29.4737" height="16.5349" rx="5" stroke="#13A77A" stroke-width="5"/>
<path d="M18.7554 86.0761C18.7554 86.0761 18.7554 80.2496 20.3294 75.6287C26.8365 56.5247 66.1058 52.2291 75.2208 74.0218C78.1719 81.0775 78.1719 86.0761 78.1719 86.0761" stroke="#13A77A" stroke-width="5"/>
<path d="M58.8278 40.9181H42.3145L66.83 6.60229H125.496V19.4575H75.3762C73.8621 19.4575 72.4495 20.219 71.6172 21.4838L58.8278 40.9181Z" stroke="#13A77A" stroke-width="5"/>
<rect x="45.7974" y="126.759" width="5.71312" height="14.3588" rx="2.85656" fill="#265C4C"/>
<rect x="45.7974" y="146.93" width="5.71312" height="6.49566" rx="2.85656" fill="#265C4C"/>
<rect x="45.7974" y="161.631" width="5.71312" height="11.9657" rx="2.85656" fill="#265C4C"/>
<rect x="45.7974" y="112.059" width="5.71312" height="6.49566" rx="2.85656" fill="#265C4C"/>
<rect width="5.70764" height="6.50339" rx="2.85382" transform="matrix(0.996007 0.0892747 -0.110566 0.993869 27.5081 132.332)" fill="#265C4C"/>
<rect width="5.70764" height="13.4703" rx="2.85382" transform="matrix(0.996007 0.0892747 -0.110566 0.993869 30.0696 111.31)" fill="#265C4C"/>
<rect width="5.70764" height="15.7233" rx="2.85382" transform="matrix(0.996007 0.0892747 -0.110566 0.993869 25.5769 146.588)" fill="#265C4C"/>
<rect width="5.70764" height="7.20172" rx="2.85382" transform="matrix(0.996007 0.0892747 -0.110566 0.993869 23.7412 166.759)" fill="#265C4C"/>
<rect width="5.69742" height="13.0981" rx="2.84871" transform="matrix(0.988486 0.151312 -0.186651 0.982426 2.44482 160.147)" fill="#265C4C"/>
<rect width="5.69742" height="15.2898" rx="2.84871" transform="matrix(0.988486 0.151312 -0.186651 0.982426 10.1829 125.974)" fill="#265C4C"/>
<rect width="5.69742" height="7.34253" rx="2.84871" transform="matrix(0.988486 0.151312 -0.186651 0.982426 6.03345 145.904)" fill="#265C4C"/>
<rect width="5.69742" height="7.34253" rx="2.84871" transform="matrix(0.988486 0.151312 -0.186651 0.982426 13.6509 111.375)" fill="#265C4C"/>
<rect width="5.70764" height="6.50339" rx="2.85382" transform="matrix(-0.996007 0.0892747 0.110566 0.993869 69.6594 132.056)" fill="#265C4C"/>
<rect width="5.70764" height="13.4703" rx="2.85382" transform="matrix(-0.996007 0.0892747 0.110566 0.993869 67.0981 111.033)" fill="#265C4C"/>
<rect width="5.70764" height="15.7233" rx="2.85382" transform="matrix(-0.996007 0.0892747 0.110566 0.993869 71.5908 146.311)" fill="#265C4C"/>
<rect width="5.70764" height="7.20172" rx="2.85382" transform="matrix(-0.996007 0.0892747 0.110566 0.993869 73.4265 166.482)" fill="#265C4C"/>
<rect width="5.69742" height="13.0981" rx="2.84871" transform="matrix(-0.988486 0.151312 0.186651 0.982426 94.7229 159.871)" fill="#265C4C"/>
<rect width="5.69742" height="15.2898" rx="2.84871" transform="matrix(-0.988486 0.151312 0.186651 0.982426 86.9849 125.697)" fill="#265C4C"/>
<rect width="5.69742" height="7.34253" rx="2.84871" transform="matrix(-0.988486 0.151312 0.186651 0.982426 91.1343 145.628)" fill="#265C4C"/>
<rect width="5.69742" height="7.34253" rx="2.84871" transform="matrix(-0.988486 0.151312 0.186651 0.982426 83.5168 111.098)" fill="#265C4C"/>
</svg>
