<svg width="154" height="125" viewBox="0 0 154 125" fill="none" xmlns="http://www.w3.org/2000/svg">
<path fill-rule="evenodd" clip-rule="evenodd" d="M154 48.1129V65.2233C153.995 70.5157 152.161 75.5898 148.902 79.3321C145.642 83.0744 141.223 85.1794 136.613 85.1853H131.731C128.089 95.577 120.347 104.712 108.812 112.07C96.0625 120.202 82.3943 123.885 78.5096 124.819C77.5142 125.06 76.4858 125.06 75.4904 124.819C71.605 123.885 57.9375 120.202 45.1884 112.071C33.6527 104.712 25.9105 95.577 22.2691 85.1853H17.3871C12.7773 85.1794 8.3578 83.0744 5.09819 79.3321C1.83858 75.5898 0.00509523 70.5157 0 65.2233V48.1129C0.00509523 42.8205 1.83858 37.7464 5.09819 34.0041C8.3578 30.2618 12.7773 28.1567 17.3871 28.1509H19.943C20.1267 26.6056 20.6736 25.147 21.5252 23.9318C22.3767 22.7166 23.5006 21.7909 24.776 21.254L74.4534 0.514164C76.0986 -0.171297 77.9014 -0.171297 79.5466 0.514164L129.224 21.254C130.499 21.7909 131.623 22.7166 132.475 23.9318C133.326 25.147 133.873 26.6056 134.057 28.1509H136.613C141.223 28.1567 145.642 30.2618 148.902 34.0041C152.161 37.7464 153.995 42.8205 154 48.1129ZM20.7093 79.4819C20.1502 76.6755 19.869 73.8056 19.871 70.9267V33.8543H17.3871C14.0944 33.8585 10.9376 35.3621 8.60928 38.0352C6.28098 40.7083 4.97136 44.3326 4.96774 48.1129V65.2233C4.97136 69.0036 6.28098 72.6279 8.60928 75.301C10.9376 77.9741 14.0944 79.4777 17.3871 79.4819H20.7093ZM129.161 70.9267V29.2944C129.16 28.7093 129.003 28.1385 128.711 27.6591C128.418 27.1798 128.005 26.815 127.526 26.6138L77.8489 5.87469C77.3005 5.64588 76.6995 5.64588 76.1511 5.87469L26.4737 26.6138C25.9951 26.815 25.5817 27.1798 25.2893 27.6591C24.9969 28.1385 24.8397 28.7093 24.8387 29.2944V70.9267C24.8387 85.2858 32.4971 97.4513 47.6009 107.085C59.7408 114.827 72.7967 118.344 76.5094 119.237C76.8329 119.315 77.1671 119.315 77.4906 119.237C81.2033 118.344 94.2598 114.827 106.399 107.085C121.503 97.4513 129.161 85.2851 129.161 70.9267ZM149.032 48.1129C149.029 44.3326 147.719 40.7083 145.391 38.0352C143.062 35.3621 139.906 33.8585 136.613 33.8543H134.129V70.9267C134.131 73.8056 133.85 76.6755 133.291 79.4819H136.613C139.906 79.4777 143.062 77.9741 145.391 75.301C147.719 72.6279 149.029 69.0036 149.032 65.2233V48.1129Z" fill="#13A77A"/>
<path d="M101.839 73.7784H52.1613C51.5025 73.7784 50.8707 74.0789 50.4049 74.6137C49.9391 75.1485 49.6774 75.8738 49.6774 76.6301C49.6774 77.3865 49.9391 78.1118 50.4049 78.6466C50.8707 79.1814 51.5025 79.4819 52.1613 79.4819H101.839C102.497 79.4819 103.129 79.1814 103.595 78.6466C104.061 78.1118 104.323 77.3865 104.323 76.6301C104.323 75.8738 104.061 75.1485 103.595 74.6137C103.129 74.0789 102.497 73.7784 101.839 73.7784Z" fill="#13A77A"/>
<path d="M104.323 53.8164C104.323 54.5727 104.061 55.298 103.595 55.8328C103.129 56.3676 102.497 56.6681 101.839 56.6681H52.1613C51.5025 56.6681 50.8707 56.3676 50.4049 55.8328C49.9391 55.298 49.6774 54.5727 49.6774 53.8164C49.6774 53.0601 49.9391 52.3347 50.4049 51.7999C50.8707 51.2651 51.5025 50.9647 52.1613 50.9647H101.839C102.497 50.9647 103.129 51.2651 103.595 51.7999C104.061 52.3347 104.323 53.0601 104.323 53.8164Z" fill="#13A77A"/>
</svg>
