<svg width="139" height="146" viewBox="0 0 139 146" fill="none" xmlns="http://www.w3.org/2000/svg">
<path d="M13.7659 110.587V100.821H117.999V110.587C117.999 128.945 103.06 143.881 84.7046 143.881H47.06C28.6989 143.881 13.7659 128.942 13.7659 110.587Z" stroke="#265C4C" stroke-width="4"/>
<path d="M84.7046 131.761H75.2926V136.469H84.7046C98.9733 136.469 110.583 124.859 110.583 110.59H105.879C105.879 122.262 96.3796 131.761 84.7046 131.761Z" fill="#265C4C"/>
<path d="M70.588 131.761H65.8804V136.469H70.588V131.761Z" fill="#265C4C"/>
<path d="M48.7198 72.2514L45.4225 68.8958C45.3479 68.9638 43.5745 70.5882 39.9984 70.5882C36.4255 70.5882 34.6521 68.9638 34.5742 68.8958L31.277 72.2514C31.5882 72.5659 34.477 75.2958 39.9984 75.2958C45.523 75.2925 48.4118 72.5626 48.7198 72.2514Z" fill="#265C4C"/>
<path d="M72.2223 68.8958L68.925 72.2514C69.2363 72.5659 72.1251 75.2958 77.6464 75.2958C83.1678 75.2958 86.0566 72.5659 86.3678 72.2514L83.0706 68.8958C82.996 68.9638 81.2225 70.5882 77.6464 70.5882C74.0703 70.5882 72.2969 68.9638 72.2223 68.8958Z" fill="#265C4C"/>
<path d="M127.494 0.00324192C123.484 0.00324192 119.736 2.15603 117.719 5.61865L94.3791 45.6268C92.8196 45.0335 91.1304 44.7093 89.3635 44.7093H89.0717C85.6188 44.7093 82.3766 45.9802 79.838 48.2789L74.5014 42.9423L96.266 21.1777L85.8814 10.7931L72.942 23.7326V0H56.4718V22.5557L44.7061 10.7899L34.3214 21.1745L45.4226 32.2821C44.6931 32.5966 43.9928 32.963 43.3119 33.3585C40.3454 32.6517 37.168 32.8981 34.3701 34.1172C30.8912 28.9848 25.1267 25.8854 18.8239 25.8854C8.44581 25.8854 0 34.3312 0 44.7093C0 49.1997 1.62432 53.528 4.51956 56.9192C1.62432 59.9539 0 63.9612 0 68.2376C0 73.6715 2.65857 78.4861 6.73071 81.4883C4.10781 83.158 2.3538 86.0759 2.3538 89.4121C2.3538 94.6028 6.57509 98.8241 11.7658 98.8241H105.879V94.1165H11.7658C9.16881 94.1165 7.05817 92.0026 7.05817 89.4089C7.05817 86.8151 9.16881 84.7013 11.7658 84.7013H119.995C122.589 84.7013 124.703 86.8119 124.703 89.4089C124.703 92.0026 122.589 94.1165 119.995 94.1165H110.583V98.8241H119.995C125.186 98.8241 129.407 94.6028 129.407 89.4121C129.407 84.2214 125.186 80.0034 119.995 80.0034H116.374C118.617 77.5004 119.995 74.2096 119.995 70.5914C119.995 65.9681 117.752 61.87 114.305 59.2925L137.415 17.271C138.333 15.6045 138.816 13.7176 138.816 11.8144V11.3216C138.819 5.08045 133.742 0.00324192 127.494 0.00324192ZM93.9252 80.0001H61.3642C62.512 72.0342 69.3659 65.8806 77.6463 65.8806C85.9235 65.8806 92.7775 72.0309 93.9252 80.0001ZM53.5928 35.2941C57.853 35.2941 61.857 36.9541 64.869 39.9628L76.9039 51.9977C75.8469 53.9721 75.2893 56.1865 75.2893 58.4852V61.3124C68.0982 62.1132 61.9965 66.5257 58.8224 72.6891V60.5148L71.3274 56.3421L69.8392 51.8809L58.8224 55.5543V42.349H54.1148V53.1357L46.366 45.3901L43.0396 48.7166L54.1148 59.795V66.61C50.3636 63.2414 45.4226 61.173 39.9952 61.173C39.2009 61.173 38.4163 61.2248 37.6446 61.3124V51.239C37.6446 42.4495 44.8001 35.2941 53.5928 35.2941ZM39.9984 65.8806C48.2789 65.8806 55.1328 72.0309 56.2805 80.0001H23.7163C24.8641 72.0309 31.718 65.8806 39.9984 65.8806ZM85.8782 17.446L89.6099 21.1777L72.9355 37.8489V30.3855L85.8782 17.446ZM68.2311 4.70761V36.672L68.1954 36.6363C66.1594 34.6003 63.7699 33.057 61.1729 32.0325V4.70761H68.2311ZM40.9743 21.1777L44.7061 17.446L56.4718 29.2118V30.8102C55.5284 30.6773 54.5687 30.5897 53.596 30.5897C52.5845 30.5897 51.5989 30.6902 50.6262 30.8296L40.9743 21.1777ZM4.70436 68.2344C4.70436 64.548 6.39677 61.1438 9.34388 58.8937L11.6134 57.1592L9.47681 55.2625C6.4454 52.5748 4.70436 48.7263 4.70436 44.7061C4.70436 36.9184 11.0363 30.5865 18.8239 30.5865C24.1573 30.5865 28.9751 33.553 31.4035 38.3255L32.6031 40.6825L34.8045 39.2203C35.735 38.6043 36.7628 38.1796 37.8294 37.93C34.7851 41.5287 32.937 46.1715 32.937 51.2422V55.4959L15.7763 38.3352L12.4499 41.6617L30.9334 60.1452L13.3674 66.0005L14.8555 70.4617L25.5644 66.8921C21.9656 70.2542 19.5307 74.8451 18.9569 79.9969H16.4701C9.98259 80.0001 4.70436 74.7219 4.70436 68.2344ZM105.879 80.0001H98.6814C98.4026 77.4875 97.6699 75.1142 96.5837 72.9387H110.583V68.2344H93.3837C92.8747 67.6637 92.3333 67.1223 91.7627 66.6133V54.118H87.0551V63.4133C84.8828 62.3304 82.5096 61.5977 79.9969 61.3156V58.4884C79.9969 56.0666 80.9404 53.7841 82.6522 52.069C84.3641 50.3539 86.6465 49.4104 89.0717 49.4104H89.3635C94.5736 49.4104 98.8176 53.6349 98.8176 58.8224V61.173H105.879C111.07 61.173 115.288 65.3942 115.288 70.5849C115.291 75.7756 111.07 80.0001 105.879 80.0001ZM134.112 11.8144C134.112 12.9265 133.83 14.0256 133.295 15.0014L110.129 57.1235C108.787 56.6988 107.361 56.4718 105.882 56.4718L103.331 56.4686C102.76 53.087 100.97 50.1204 98.4415 48.0066L121.788 7.98867C122.968 5.96232 125.154 4.70761 127.498 4.70761C131.145 4.70761 134.115 7.67742 134.115 11.3216V11.8144H134.112Z" fill="#13A77A"/>
</svg>
