<svg width="256" height="173" viewBox="0 0 256 173" fill="none" xmlns="http://www.w3.org/2000/svg">
<path d="M122.992 66.5496V59.4688C122.986 54.0938 120.848 48.9407 117.048 45.14C113.247 41.3393 108.094 39.2014 102.719 39.1953H90.5547V20.2734H113.531C115.323 20.2756 117.041 20.9883 118.307 22.2551C119.574 23.522 120.287 25.2396 120.289 27.0312C120.289 28.1066 120.716 29.1379 121.477 29.8983C122.237 30.6587 123.268 31.0859 124.344 31.0859C125.419 31.0859 126.45 30.6587 127.211 29.8983C127.971 29.1379 128.398 28.1066 128.398 27.0312C128.394 23.0896 126.826 19.3107 124.039 16.5235C121.252 13.7363 117.473 12.1685 113.531 12.1641H70.2812C69.2059 12.1641 68.1746 12.5913 67.4142 13.3517C66.6538 14.1121 66.2266 15.1434 66.2266 16.2188C66.2266 17.2941 66.6538 18.3254 67.4142 19.0858C68.1746 19.8462 69.2059 20.2734 70.2812 20.2734H82.4453V39.1953H70.2812C64.9063 39.2014 59.7532 41.3393 55.9525 45.14C52.1518 48.9407 50.0139 54.0938 50.0078 59.4688V66.5496C43.9801 67.5215 38.4947 70.606 34.5328 75.2516C30.5709 79.8972 28.391 85.8007 28.3828 91.9062V145.969C28.3857 148.477 29.3834 150.882 31.157 152.655C32.9307 154.429 35.3354 155.427 37.8438 155.43H135.156C137.665 155.427 140.069 154.429 141.843 152.655C143.617 150.882 144.614 148.477 144.617 145.969V91.9062C144.609 85.8007 142.429 79.8972 138.467 75.2516C134.505 70.606 129.02 67.5215 122.992 66.5496ZM70.2812 47.3047H102.719C105.944 47.3083 109.036 48.591 111.316 50.8714C113.597 53.1518 114.879 56.2437 114.883 59.4688V66.2266H58.1172V59.4688C58.1208 56.2437 59.4035 53.1518 61.6839 50.8714C63.9643 48.591 67.0562 47.3083 70.2812 47.3047ZM136.508 145.969C136.507 146.327 136.365 146.671 136.111 146.924C135.858 147.177 135.515 147.32 135.156 147.32H37.8438C37.4855 147.32 37.142 147.177 36.8886 146.924C36.6353 146.671 36.4927 146.327 36.4922 145.969V91.9062C36.4976 87.248 38.3504 82.782 41.6443 79.4881C44.9382 76.1942 49.4042 74.3413 54.0625 74.3359H118.938C123.596 74.3413 128.062 76.1942 131.356 79.4881C134.65 82.782 136.502 87.248 136.508 91.9062V145.969Z" fill="#13A77A"/>
<g clip-path="url(#clip0_30_410)">
<path d="M186.262 54.4367C184.756 54.4524 183.278 54.839 181.957 55.5623C180.637 56.2856 179.515 57.3233 178.691 58.5835C177.867 59.8437 177.367 61.2876 177.234 62.7873C177.101 64.2871 177.34 65.7964 177.93 67.1818L168.082 67.273C166.54 67.2866 165.026 67.69 163.682 68.4456C162.337 69.2012 161.206 70.2844 160.393 71.5946C159.579 72.9048 159.111 74.3994 159.03 75.9394C158.949 77.4794 159.259 79.0148 159.931 80.4029C158.096 80.9764 156.489 82.1128 155.336 83.6508C154.184 85.1889 153.544 87.0507 153.509 88.9725C153.473 90.8942 154.043 92.7784 155.138 94.3581C156.233 95.9377 157.797 97.1328 159.609 97.7738C159.207 99.1448 159.131 100.591 159.388 101.996C159.645 103.402 160.228 104.727 161.09 105.867C161.951 107.007 163.068 107.929 164.35 108.56C165.632 109.19 167.044 109.512 168.473 109.498L169.875 109.485C169.311 110.882 169.1 112.395 169.261 113.892C169.422 115.389 169.949 116.824 170.796 118.069C171.643 119.313 172.784 120.33 174.118 121.029C175.451 121.728 176.937 122.087 178.442 122.075L204.481 121.834C209.819 121.784 215.032 120.218 219.513 117.319C223.994 114.419 227.559 110.306 229.791 105.458C232.024 100.61 232.832 95.2267 232.122 89.9367C231.411 84.6468 229.212 79.6677 225.78 75.58C224.235 69.4612 220.678 64.0392 215.681 60.1847C210.684 56.3301 204.537 54.2666 198.226 54.3256L186.262 54.4367ZM164.647 76.4551C164.64 75.5221 165.003 74.6242 165.656 73.9583C166.31 73.2924 167.201 72.913 168.134 72.9032L183.159 72.7638C182.733 74.6458 182.91 76.6139 183.664 78.39L173.816 78.4814C172.093 78.4961 170.41 78.9999 168.962 79.9342L168.199 79.9409C167.266 79.9484 166.368 79.5856 165.702 78.9321C165.037 78.2786 164.657 77.388 164.647 76.4551ZM159.135 89.1746C159.127 88.2417 159.49 87.344 160.144 86.6782C160.797 86.0125 161.688 85.6331 162.621 85.6233L164.981 85.6015C164.518 87.6258 164.76 89.7474 165.667 91.6154C164.884 91.8601 164.139 92.2093 163.45 92.6536L162.687 92.6609C161.754 92.6684 160.856 92.3057 160.19 91.6521C159.524 90.9985 159.145 90.1076 159.135 89.1746ZM226.741 93.4751C226.789 99.4458 224.467 105.192 220.285 109.453C216.102 113.714 210.4 116.142 204.429 116.204L178.391 116.445C177.457 116.454 176.559 116.091 175.893 115.437C175.227 114.784 174.848 113.892 174.839 112.959C174.831 112.025 175.193 111.127 175.847 110.461C176.501 109.795 177.392 109.416 178.326 109.407L195.216 109.251C195.959 109.239 196.667 108.934 197.186 108.401C197.705 107.869 197.993 107.153 197.986 106.41C197.979 105.667 197.678 104.956 197.15 104.434C196.621 103.911 195.907 103.619 195.164 103.621L168.421 103.868C167.956 103.876 167.496 103.791 167.064 103.62C166.633 103.448 166.24 103.193 165.908 102.869C165.576 102.545 165.311 102.159 165.128 101.732C164.946 101.305 164.85 100.847 164.846 100.382C164.841 99.9184 164.929 99.4581 165.103 99.028C165.278 98.5979 165.535 98.2065 165.862 97.8764C166.188 97.5463 166.576 97.284 167.004 97.1046C167.432 96.9252 167.891 96.8321 168.355 96.8309L195.098 96.5835C195.842 96.5717 196.55 96.2663 197.069 95.7341C197.588 95.2019 197.875 94.486 197.869 93.7426C197.862 92.9993 197.561 92.2888 197.032 91.7663C196.503 91.2438 195.789 90.9516 195.046 90.9536L173.933 91.149C173.471 91.1533 173.013 91.0665 172.584 90.8936C172.156 90.7207 171.765 90.4651 171.436 90.1413C171.106 89.8176 170.843 89.4321 170.662 89.0068C170.481 88.5815 170.386 88.1248 170.382 87.6627C170.378 87.2006 170.464 86.7421 170.637 86.3136C170.81 85.885 171.066 85.4947 171.39 85.1649C172.043 84.4989 172.935 84.1199 173.868 84.1113L203.426 83.8376C204.169 83.8258 204.878 83.5204 205.397 82.9882C205.916 82.456 206.203 81.7401 206.196 80.9967C206.189 80.2533 205.889 79.5429 205.36 79.0204C204.831 78.4979 204.117 78.2057 203.374 78.2077L192.114 78.3121C191.652 78.3163 191.193 78.2294 190.764 78.0565C190.336 77.8836 189.946 77.628 189.616 77.3043C188.95 76.6504 188.571 75.7588 188.562 74.8256C188.554 73.8923 188.916 72.9939 189.57 72.3279C189.894 71.9981 190.279 71.7353 190.704 71.5545C191.13 71.3737 191.586 71.2785 192.048 71.2742L204.012 71.1635C209.985 71.1083 215.735 73.428 219.997 77.6122C224.26 81.7964 226.685 87.5024 226.741 93.4751ZM215.679 67.9607C211.992 66.3184 207.996 65.4904 203.96 65.5332L191.996 65.6443C190.27 65.6565 188.583 66.1604 187.132 67.0969L186.379 67.104C185.915 67.1113 185.454 67.0269 185.023 66.8554C184.592 66.6839 184.199 66.4289 183.867 66.1049C183.534 65.7809 183.27 65.3944 183.087 64.9676C182.905 64.5408 182.809 64.0822 182.805 63.6181C182.8 63.1541 182.888 62.6937 183.062 62.2636C183.237 61.8336 183.494 61.4422 183.82 61.1121C184.147 60.782 184.535 60.5197 184.963 60.3402C185.391 60.1608 185.85 60.0678 186.314 60.0666L198.278 59.9558C201.587 59.9358 204.861 60.6422 207.868 62.0253C210.874 63.4085 213.541 65.4346 215.679 67.9607ZM168.097 55.0868L164.079 51.1428C163.547 50.6197 163.243 49.9064 163.237 49.1598C163.23 48.4132 163.52 47.6944 164.043 47.1616C164.566 46.6289 165.279 46.3257 166.026 46.3189C166.773 46.3121 167.491 46.6021 168.024 47.1252L172.042 51.0692C172.306 51.3282 172.516 51.6367 172.66 51.9769C172.805 52.3172 172.881 52.6826 172.885 53.0523C172.888 53.422 172.818 53.7887 172.68 54.1315C172.542 54.4744 172.337 54.7866 172.078 55.0504C171.819 55.3142 171.511 55.5244 171.17 55.669C170.83 55.8136 170.465 55.8898 170.095 55.8932C169.349 55.9 168.63 55.61 168.097 55.0868ZM175.486 48.6096L173.059 43.5288C172.896 43.1947 172.8 42.8315 172.778 42.4602C172.755 42.0889 172.807 41.7169 172.929 41.3657C173.052 41.0144 173.242 40.6909 173.49 40.4138C173.738 40.1366 174.039 39.9114 174.375 39.7512C174.71 39.5909 175.074 39.4987 175.446 39.48C175.817 39.4612 176.189 39.5163 176.539 39.642C176.889 39.7676 177.211 39.9614 177.485 40.2122C177.76 40.4629 177.982 40.7656 178.14 41.1028L180.566 46.1836C180.88 46.8562 180.915 47.6252 180.664 48.3236C180.413 49.0219 179.897 49.593 179.227 49.9128C178.558 50.2325 177.789 50.2749 177.088 50.0309C176.388 49.7869 175.812 49.2761 175.486 48.6096ZM189.705 38.9029L190.248 44.5072C190.312 45.2464 190.083 45.9811 189.608 46.5517C189.134 47.1223 188.454 47.4825 187.715 47.5541C186.977 47.6256 186.24 47.4028 185.665 46.9339C185.09 46.4651 184.723 45.7881 184.644 45.0503L184.101 39.446C184.062 39.0761 184.096 38.7021 184.202 38.3456C184.308 37.989 184.484 37.6571 184.719 37.3688C184.954 37.0805 185.244 36.8417 185.572 36.6661C185.899 36.4904 186.259 36.3816 186.629 36.3457C186.999 36.3098 187.373 36.3476 187.729 36.457C188.084 36.5664 188.414 36.7451 188.7 36.9829C188.986 37.2207 189.222 37.5128 189.395 37.8423C189.567 38.1719 189.673 38.5323 189.705 38.9029Z" fill="#265C4C"/>
</g>
<defs>
<clipPath id="clip0_30_410">
<rect width="90.0844" height="90.0844" fill="white" transform="translate(131 97.2002) rotate(-56.5925)"/>
</clipPath>
</defs>
</svg>
