<svg width="226" height="247" viewBox="0 0 226 247" fill="none" xmlns="http://www.w3.org/2000/svg">
<g clip-path="url(#clip0_30_463)">
<path d="M179.13 310.692C179.799 279.634 176.838 252.208 176.838 252.208C157.629 248.202 117.229 242.594 109.303 252.208C101.377 261.821 114.578 303.118 122.17 322.566C122.17 322.566 128.592 364.279 134.656 387.501C138.069 424.747 151.557 478.858 151.557 478.858C165.547 481.154 174.38 478.311 174.38 478.311C174.38 478.311 178.295 418.296 178.987 391.61C179.679 364.924 178.486 341.177 179.13 310.692Z" fill="#12A072"/>
<path d="M17.4871 119.255C16.9144 117.941 13.7391 119.805 12.6173 121.787C5.72042 133.829 18.3071 142.599 24.5538 151.078C29.3003 157.517 35.0051 182.261 47.5513 207.976C47.5244 208.038 47.4976 208.097 47.4712 208.153C47.4712 208.153 47.5076 208.11 47.5795 208.034C53.0873 219.314 58.4306 232.877 72.0841 220.074C85.6446 207.391 102.378 183.899 102.379 164.863C102.379 164.863 75.2589 155.617 64.8266 149.787C61.5248 157.103 58.8035 165.217 56.5498 173.031C48.1923 164.053 36.7803 155.856 36.275 142.716C36.2513 142.333 36.2276 141.951 36.1798 141.593C36.1798 141.593 35.368 132.753 33.3865 130.412C31.4292 128.07 27.7764 123.293 27.0843 122.074C26.3918 120.856 25.2222 121.19 24.5297 122.074C22.3611 125.019 27.0538 127.341 26.344 129.552C24.6485 134.218 18.3709 121.281 17.4871 119.255Z" fill="#FFCCB0"/>
<path d="M47.5512 207.976C47.5243 208.038 47.4975 208.097 47.4711 208.153C47.4711 208.153 47.5075 208.11 47.5794 208.034C53.0872 219.314 58.4305 232.877 72.084 220.074C85.6445 207.391 102.378 183.899 102.379 164.862C92.1958 176.919 73.1038 217.274 64.8265 212.625C56.5497 207.976 44.3992 189.424 41.0332 177.143C37.6672 164.862 28.2107 152.367 24.5537 151.077C29.3002 157.517 35.005 182.26 47.5512 207.976Z" fill="#FBC4A6"/>
<path d="M59.5273 161.446C59.5273 161.446 65.352 168.757 74.8294 172.03C92.9179 178.315 91.2911 160.38 96.1719 147.733L114.506 104.156C113.718 103.057 112.93 101.767 112.548 100.524C112.357 99.9513 112.238 99.3776 112.286 98.8523V98.8281C101.519 100.692 80.6545 105.613 76.5486 109.292C67.4532 117.415 64.5643 138.726 59.5273 161.446Z" fill="#13A77A"/>
<path d="M59.5273 161.446C64.5643 138.726 67.4527 117.415 76.5481 109.292C78.3288 107.697 83.261 105.868 89.1544 104.156C85.9509 106.197 78.6011 113.059 74.8294 124.175C71.0582 135.29 65.0569 155.721 62.5277 164.546C60.5832 162.772 59.5273 161.446 59.5273 161.446Z" fill="#10956C"/>
<path d="M77.5286 257.846C94.4825 275.288 166.116 271.32 182.258 250.32C185.648 245.9 183.404 236.033 183.285 230.634C182.855 213.887 182.449 197.139 182.019 180.391C181.614 163.931 181.208 147.47 180.778 131.009C180.611 124.559 180.181 117.415 175.693 112.924C153.693 107.426 129.168 97.4219 106.247 101.006C76.8529 105.434 75.7124 150.729 74.8551 172.006C74.4731 180.702 74.2819 189.398 74.2104 198.071C74.0911 212.095 62.9664 242.866 77.5286 257.846Z" fill="#13A77A"/>
<path d="M183.284 230.634C183.404 236.033 185.648 245.9 182.258 250.32C166.116 271.32 94.4824 275.287 77.5285 257.846C68.5296 239.34 150.591 244.778 158.317 225.125C166.043 205.473 161.214 198.071 182.019 180.391C182.449 197.139 182.855 213.887 183.284 230.634Z" fill="#13A77A"/>
<path d="M182.258 250.32C185.642 245.908 183.412 236.071 183.285 230.664C183.285 230.654 183.285 230.644 183.284 230.634C183.285 230.644 183.285 230.654 183.285 230.664C183.522 242.369 149.253 252.59 127.492 250.32C110.069 248.502 96.2713 259.527 91.5503 265.266C118.713 273.28 169.053 267.499 182.258 250.32Z" fill="#10956C"/>
<path d="M199.445 213.599C200.042 222.511 168.434 277.89 166.525 287.351C163.708 301.305 152.512 289.898 152.512 284.292C152.512 269.1 162.427 235.926 169.239 214.913C168.597 213.067 167.803 210.888 166.913 208.445C162.612 196.634 156.058 178.642 153.491 162.186C165.379 161.327 193.167 154.207 193.167 154.207C193.167 154.207 199.445 188.825 199.445 213.599Z" fill="#FFCCB0"/>
<path d="M199.445 213.599C199.445 188.825 193.168 154.207 193.168 154.207C186.584 169.803 193.168 187.808 193.168 205.57C193.168 223.333 166.136 262.8 166.525 287.351C168.434 277.89 200.042 222.511 199.445 213.599Z" fill="#FBC4A6"/>
<path d="M137.472 100.74L135.538 102.241C144.593 128.021 150.307 153.81 156.618 180.272C166.072 183.402 174.738 182.757 181.995 180.416C187.51 178.648 192.212 175.9 195.77 173.153C195.507 166.272 193.716 129.433 182.067 115.552C171.801 103.32 152.703 103.559 138.117 99.6169C138.093 99.7126 137.902 100.142 137.472 100.74Z" fill="#13A77A"/>
<path d="M182.066 115.552C193.716 129.432 195.507 166.272 195.77 173.153C194.199 174.365 192.406 175.578 190.417 176.707C189.384 168.737 186.254 148.936 181.995 133.482C177.736 118.027 167.425 107.891 162.801 104.754C170.267 106.721 177.171 109.718 182.066 115.552Z" fill="#10956C"/>
<path d="M138.261 101.05C138.261 101.05 136.757 85.6165 135.897 78.8552L113.171 83.8249C112.072 90.968 111.698 103.172 111.698 103.172C119.604 111.622 132.89 104.691 138.261 101.05Z" fill="#FFCCB0"/>
<path d="M101.902 61.678C102.714 64.8074 101.854 68.1523 100.374 71.0192C99.3236 73.05 97.7961 75.0329 95.5998 75.6781C93.26 76.347 90.3479 59.9817 90.6821 48.8963C90.7536 46.2445 92.9499 41.6574 95.6234 41.7052" fill="#F97600"/>
<path d="M95.6238 41.7052C92.9499 41.6574 90.7536 46.2445 90.6821 48.8963C90.5678 52.6918 90.8337 57.1066 91.3272 61.2443C91.9724 59.0941 92.455 53.533 92.8602 50.066C93.1839 47.292 94.8375 43.3363 95.6238 41.7052Z" fill="#DD6800"/>
<path d="M102.094 39.4118C92.8788 50.6166 89.083 67.197 92.2341 80.6472C93.5472 86.1901 97.892 90.299 103.335 91.6851C113.624 94.3128 128.544 90.4904 135.73 82.5827C143.536 74.0294 141.173 57.3301 139.526 46.7943C138.022 37.2378 133.486 24.8385 121.502 27.2514C113.624 28.876 107.059 33.3675 102.094 39.4118Z" fill="#FFCCB0"/>
<path d="M133.773 45.3367C131.242 48.3947 126.778 49.6851 123.006 48.4188C121.598 47.9409 120.284 47.1526 118.805 46.8419C116.417 46.3402 113.982 47.1285 111.595 47.678C108.205 48.4425 104.72 48.7054 101.258 48.3947C99.563 48.2516 97.725 48.0366 96.2448 47.1526C95.815 46.8897 85.8362 39.1729 91.5898 28.8282C95.9347 20.992 119.64 24.4562 120.762 24.4562C124.414 24.504 128.21 24.8623 131.409 26.6541C134.775 28.5176 137.401 32.2924 136.757 36.2822" fill="#F97600"/>
<path d="M128.115 41.8485C126.42 43.7836 125.99 46.5073 125.847 49.0635C125.632 52.9337 125.967 56.9475 127.757 60.3639C128.258 61.3435 129.261 62.3947 130.287 61.9883C130.694 61.8452 131.028 61.4629 131.457 61.4629C131.768 61.4629 132.03 61.6538 132.269 61.8452C134.035 63.2066 135.659 65.1181 136.447 67.2204C136.996 68.7017 136.709 70.0636 136.518 71.5923C136.303 73.5516 137.044 77.9476 138.309 79.5961C139.431 81.0533 152.203 66.0262 147.285 46.4116C146.784 44.4526 145.184 39.9372 143.728 38.5277C142.272 37.142 140.696 35.7802 138.834 35.0157C136.972 34.2512 134.728 34.1317 133.009 35.2068" fill="#F97600"/>
<path d="M129.715 63.0158C130.192 61.9168 130.67 60.8178 131.529 59.9817C132.389 59.1693 133.702 58.6913 134.776 59.193C135.874 59.6946 136.375 60.9372 136.686 62.084C137.45 64.9509 137.545 68.2238 135.826 70.6369C135.229 71.4493 134.394 72.166 133.391 72.2854C132.46 72.4048 131.505 71.9747 130.861 71.2821C130.216 70.5891 129.882 69.6573 129.787 68.7255" fill="#FFCCB0"/>
<path d="M112.264 92.4732C119.999 91.4462 125.275 88.4121 129.429 85.6646C128.312 91.8759 118.83 98.5716 112.383 95.5074" fill="#F0B99B"/>
<path d="M141.412 100.405C141.412 100.405 138.357 93.0948 137.521 93.4529C136.685 93.8115 127.088 100.381 119.402 101.17C119.402 101.17 122.768 109.197 123.078 109.46C123.388 109.723 134.561 107.214 141.412 100.405Z" fill="#13A77A"/>
<path d="M119.377 101.17C119.377 101.17 115.437 109.054 114.936 109.054C114.435 109.054 110.329 105.111 108.777 99.6167L112.262 93.9786C112.262 93.9545 113.48 99.1151 119.377 101.17Z" fill="#13A77A"/>
<path d="M133.534 29.8018C141.105 37.3791 129.008 51.6887 120.277 45.8282C129.36 48.9493 138.455 38.8886 133.534 29.8018Z" fill="#DD6800"/>
</g>
<defs>
<clipPath id="clip0_30_463">
<rect width="226" height="247" fill="white"/>
</clipPath>
</defs>
</svg>
